<?xml version="1.0" encoding="utf-8"?>
<!-- Generator: Adobe Illustrator 26.2.1, SVG Export Plug-In . SVG Version: 6.00 Build 0)  -->
<svg version="1.1" id="Layer_1" xmlns="http://www.w3.org/2000/svg" xmlns:xlink="http://www.w3.org/1999/xlink" x="0px" y="0px"
	 viewBox="0 0 341.6 341.6" style="enable-background:new 0 0 341.6 341.6;" xml:space="preserve">
<style type="text/css">
	.st0{fill:#40683C;}
	.st1{fill:#D9C79E;}
	.st2{enable-background:new    ;}
</style>
<g id="Layer_2_00000009552534826458186240000007379036848262174622_">
	<g id="Layer_1-2">
		<rect class="st0" width="341.6" height="341.6"/>
		<path class="st1" d="M283.9,199.5c-19.6,4.1-61.5,3.1-91.2-4.3c-13.9-3.6-27.4-8.7-40.1-15.4c-10.6-5.4-21.3-11.8-32.4-16.2
			c-10.8-4.2-22.4-6-34-5.2c-9.4,0.7-20.5,3.6-26.2,11.9c-3.6,5.3-2.5,11,2.2,15.2c5.2,4.7,12.8,6.8,19.6,7.9
			c19.4,3.2,39-0.7,56.9-11.4c5-3,9.3-7.1,13.4-11.3c5.4-5.5,10.7-11.2,15.7-17.1c8.7-10.2,16.7-20.9,24.3-31.8
			c6-8.6,11.8-17.4,18.3-25.7c4.7-6,10.1-12,16.7-16c5.6-3.4,10.4-5.3,15.6-6.1c3.9-0.6,7.9-0.7,10.6,1.6c6.4,5.6-2.4,15.4-7.2,18.7
			c-8.9,6.1-19.9,8.6-30.3,9.6c-11,1.1-22.2,0.1-33.1-1.5C146.1,97,111.3,84.5,88.5,75c22.5,11.8,64,25.2,74.3,27.7
			c11,2.9,22.3,4.7,33.6,5.4c10.3,0.5,22.3,0,32.4-2.4c11.5-2.8,20-8,25.5-16.8c1.7-2.7,3.1-6.2,2.7-9.5c-0.4-2.7-2.3-5.1-4.9-6.1
			c-3.6-1.5-7.7-1.2-11.4-0.4c-5,1.1-9.7,3.1-14,5.8c-6.9,4.3-12.6,10.6-17.6,17c-6.5,8.2-12.3,17-18.2,25.5
			c-7.7,10.9-15.6,21.6-24.2,31.8c-5.1,6-10.4,11.8-15.9,17.3c-4,4.2-8.6,7.8-13.6,10.8c-9.2,5.5-19.4,9.2-30,10.8
			c-9.1,1.5-18.3,1.3-27.3-0.5c-6.3-1.1-15.1-4-18.8-9.9c-1.4-2.5-1.6-5.4-0.7-8.1c1.5-3.8,4.5-6.8,8.4-8.2
			c10.2-4.2,22.7-4.2,33.4-2.3c11.6,2,22.2,7.1,32.4,12.6c11.9,6.3,23.7,12.7,36.3,17.4c28.2,10.4,58.9,14,88.8,12.1
			C267.9,204.3,276.1,202.5,283.9,199.5L283.9,199.5z"/>
		<path class="st1" d="M156.2,174.2c-10.7,10.1-22.9,19.4-36.9,24.5c-8.1,3-16.9,4.9-25.5,3.4c-5.1-0.9-10.7-3.5-12.7-8.7
			c-1.1-2.8-0.9-5.9,0.5-8.5c2.1-3.8,6.5-5.6,10.5-6.6c24-6.3,45,8.9,65.7,18.3c14.3,6.5,29.4,11.2,44.8,14.1
			c27.4,5.1,37.5,3.5,44.4,2.7c0,0,0.1,0,0.1-0.1c0,0,0-0.1-0.1-0.1c-11.7,0.2-23.3-0.8-34.8-2.8c-16.8-2.7-33.1-7.4-48.8-13.9
			c-11.7-5-22.6-11.6-34.3-16.4c-10.8-4.5-22.9-6.5-34.5-3.9c-7.1,1.6-15.8,6.1-15,14.3c0.6,5.8,4.5,9.5,9.7,11.2
			c7.5,2.6,15.1,2,22.7,0.2c13.1-3.2,24.3-9.7,34.7-18.1c11.5-9.3,22.6-21.9,32.2-33.1c10.6-13.3,29.9-38.3,37.9-52.4
			C207,112.9,178.1,153.5,156.2,174.2z"/>
		<g class="st2">
			<path class="st1" d="M55.3,262.8V234h5.8v23.8h14.5v4.9H55.3V262.8z"/>
			<path class="st1" d="M94.1,248.2l-5-0.9c0.6-2,1.5-3.5,2.9-4.5s3.4-1.5,6.2-1.5c2.5,0,4.3,0.3,5.5,0.9c1.2,0.6,2.1,1.3,2.6,2.2
				s0.7,2.6,0.7,5l-0.1,6.5c0,1.8,0.1,3.2,0.3,4.1s0.5,1.8,1,2.8h-5.5c-0.1-0.4-0.3-0.9-0.5-1.6c-0.1-0.3-0.2-0.5-0.2-0.7
				c-0.9,0.9-2,1.6-3,2.1c-1.1,0.5-2.2,0.7-3.5,0.7c-2.2,0-3.9-0.6-5.1-1.8c-1.2-1.2-1.9-2.7-1.9-4.4c0-1.2,0.3-2.2,0.8-3.2
				c0.6-0.9,1.4-1.6,2.4-2.1s2.5-0.9,4.4-1.3c2.6-0.5,4.4-0.9,5.4-1.4v-0.6c0-1.1-0.3-1.8-0.8-2.3s-1.5-0.7-3-0.7
				c-1,0-1.8,0.2-2.3,0.6C94.9,246.5,94.5,247.2,94.1,248.2z M101.2,239.2h-3.5l-5.5-5.9h6.2L101.2,239.2z M101.5,252.7
				c-0.7,0.2-1.8,0.5-3.4,0.8s-2.5,0.7-3,1c-0.7,0.5-1.1,1.2-1.1,2c0,0.8,0.3,1.4,0.9,2s1.3,0.8,2.2,0.8c1,0,2-0.3,2.9-1
				c0.7-0.5,1.1-1.1,1.3-1.8c0.1-0.5,0.2-1.4,0.2-2.7V252.7z"/>
			<path class="st1" d="M141.7,262.8h-5.6V252c0-2.3-0.1-3.7-0.4-4.4c-0.2-0.7-0.6-1.2-1.2-1.6c-0.5-0.4-1.2-0.6-1.9-0.6
				c-1,0-1.8,0.3-2.6,0.8s-1.3,1.2-1.6,2.1c-0.3,0.9-0.4,2.5-0.4,4.8v9.5h-5.6v-21h5.2v3.1c1.8-2.4,4.1-3.6,6.9-3.6
				c1.2,0,2.3,0.2,3.4,0.7s1.8,1,2.3,1.7s0.9,1.5,1.1,2.3s0.3,2.1,0.3,3.7v13.3H141.7z"/>
			<path class="st1" d="M156.9,264.1l6.3,0.8c0.1,0.7,0.3,1.2,0.7,1.5c0.5,0.4,1.4,0.6,2.5,0.6c1.4,0,2.5-0.2,3.3-0.7
				c0.5-0.3,0.9-0.8,1.1-1.4c0.2-0.5,0.3-1.3,0.3-2.5v-3.1c-1.7,2.3-3.8,3.4-6.3,3.4c-2.8,0-5.1-1.2-6.7-3.6c-1.3-1.9-1.9-4.2-1.9-7
				c0-3.5,0.8-6.2,2.5-8.1c1.7-1.9,3.8-2.8,6.3-2.8c2.6,0,4.7,1.1,6.4,3.4v-2.9h5.2v18.8c0,2.5-0.2,4.3-0.6,5.6
				c-0.4,1.2-1,2.2-1.7,2.9c-0.7,0.7-1.7,1.2-3,1.6c-1.2,0.4-2.8,0.6-4.7,0.6c-3.6,0-6.1-0.6-7.6-1.8c-1.5-1.2-2.2-2.8-2.2-4.6
				C156.9,264.6,156.9,264.4,156.9,264.1z M161.9,251.8c0,2.2,0.4,3.9,1.3,4.9c0.9,1,1.9,1.6,3.2,1.6c1.4,0,2.5-0.5,3.4-1.6
				s1.4-2.6,1.4-4.7c0-2.2-0.4-3.8-1.3-4.8c-0.9-1.1-2-1.6-3.4-1.6c-1.3,0-2.4,0.5-3.3,1.6S161.9,249.7,161.9,251.8z"/>
		</g>
		<g class="st2">
			<path class="st1" d="M198.1,262.8v-29h5.7l11.9,19.3v-19.3h5.4v29h-5.9l-11.7-18.9v18.9H198.1z"/>
		</g>
		<g class="st2">
			<path class="st1" d="M240.6,233.8v10.6c1.8-2.1,3.9-3.1,6.4-3.1c1.3,0,2.4,0.2,3.5,0.7c1,0.5,1.8,1.1,2.3,1.8s0.9,1.6,1.1,2.4
				c0.2,0.9,0.3,2.3,0.3,4.2v12.3h-5.6v-11.1c0-2.2-0.1-3.6-0.3-4.2c-0.2-0.6-0.6-1.1-1.1-1.4c-0.5-0.3-1.2-0.5-2-0.5
				c-0.9,0-1.7,0.2-2.5,0.7c-0.7,0.4-1.3,1.1-1.6,2s-0.5,2.2-0.5,4v10.5H235v-29h5.6V233.8z"/>
			<path class="st1" d="M268.7,252c0-1.8,0.5-3.6,1.4-5.4s2.2-3,3.9-4s3.5-1.4,5.6-1.4c3.2,0,5.8,1,7.8,3.1s3,4.7,3,7.8
				c0,3.2-1,5.8-3.1,7.9s-4.6,3.1-7.7,3.1c-1.9,0-3.8-0.4-5.5-1.3s-3.1-2.1-4-3.8C269.1,256.4,268.7,254.4,268.7,252z M274.4,252.3
				c0,2.1,0.5,3.7,1.5,4.8s2.2,1.7,3.7,1.7c1.4,0,2.7-0.6,3.6-1.7s1.5-2.7,1.5-4.8s-0.5-3.6-1.5-4.7s-2.2-1.7-3.6-1.7
				s-2.7,0.6-3.7,1.7C274.8,248.6,274.4,250.2,274.4,252.3z M279.8,236.8c0.7-0.2,1.1-0.5,1.1-0.9c0-0.3-0.2-0.6-0.6-0.8
				c-0.6-0.3-1.4-0.5-2.6-0.5c-0.4,0-1,0-1.9,0.1l-0.2-2c0.5-0.1,1.5-0.2,2.8-0.1c1.6,0,2.9,0.3,4,0.8c1.1,0.6,1.7,1.3,1.7,2.3
				c0.1,1.4-1.1,2.2-3.6,2.5v1h-2.2V237C279.1,237,279.6,236.9,279.8,236.8z"/>
		</g>
		<g class="st2">
			<path class="st1" d="M82.7,284.9l-4.8-7.1l0,0v7.1h-0.8v-8.1h1.1l4.5,6.7l0,0v-6.7h0.8v8.1H82.7z"/>
		</g>
		<g class="st2">
			<path class="st1" d="M102.4,284.9l-1.2-2.7h-3.8l-1.2,2.7h-0.8l3.5-8.1h0.9l3.5,8.1H102.4z M99.4,277.7l-1.6,3.7h3.2L99.4,277.7z
				"/>
		</g>
		<g class="st2">
			<path class="st1" d="M116.2,277.5v7.4h-0.8v-7.4h-1.9v-0.7h4.5v0.7H116.2z"/>
			<path class="st1" d="M135.4,281.8c0,0.3,0,0.6-0.1,0.9s-0.1,0.6-0.2,0.8c-0.5,1-1.3,1.5-2.5,1.5s-2-0.5-2.5-1.5
				c-0.1-0.2-0.2-0.5-0.2-0.8s-0.1-0.6-0.1-0.9v-5.1h0.8v5.1c0,0.3,0,0.5,0.1,0.8c0,0.3,0.1,0.5,0.2,0.7c0.4,0.7,0.9,1,1.7,1
				s1.3-0.3,1.7-1c0.1-0.2,0.2-0.4,0.2-0.7c0-0.2,0.1-0.5,0.1-0.8v-5.1h0.8V281.8z"/>
		</g>
		<g class="st2">
			<path class="st1" d="M152.8,281.1c-0.5,0.5-1,0.7-1.7,0.8l2.3,3h-1l-2.8-3.7h0.9c0.4,0,0.7,0,0.9-0.1c0.9-0.3,1.3-0.8,1.3-1.7
				c0-0.7-0.3-1.2-0.9-1.6c-0.2-0.1-0.5-0.2-0.8-0.3c-0.2,0-0.5,0-0.8,0h-1.4v7.4H148v-8.1h2.1c0.2,0,0.3,0,0.5,0s0.4,0,0.5,0
				c0.4,0,0.7,0.1,1,0.3c1,0.5,1.4,1.2,1.4,2.3C153.5,280.1,153.3,280.6,152.8,281.1z"/>
		</g>
		<g class="st2">
			<path class="st1" d="M171.6,284.9l-1.2-2.7h-3.8l-1.2,2.7h-0.8l3.5-8.1h0.9l3.5,8.1H171.6z M168.6,277.7l-1.6,3.7h3.2
				L168.6,277.7z"/>
			<path class="st1" d="M184.5,284.9v-8.1h0.8v7.4h3.4v0.7H184.5z"/>
			<path class="st1" d="M214.6,284.9v-8.1h0.8v7.4h3.4v0.7H214.6z"/>
			<path class="st1" d="M230.6,284.9v-8.1h0.8v8.1H230.6z"/>
			<path class="st1" d="M244.8,277.5v2.9h3.2v0.7h-3.2v3.7H244v-8.1h4.1v0.7L244.8,277.5L244.8,277.5z"/>
			<path class="st1" d="M260.3,284.9v-8.1h4.4v0.7h-3.6v2.9h3.5v0.7h-3.5v3h3.6v0.7L260.3,284.9L260.3,284.9z"/>
		</g>
	</g>
</g>
</svg>
