<?xml version="1.0" encoding="utf-8"?>
<!-- Generator: Adobe Illustrator 26.2.1, SVG Export Plug-In . SVG Version: 6.00 Build 0)  -->
<svg version="1.1" id="Group_1_copy" xmlns="http://www.w3.org/2000/svg" xmlns:xlink="http://www.w3.org/1999/xlink" x="0px"
	 y="0px" viewBox="0 0 912 301" style="enable-background:new 0 0 912 301;" xml:space="preserve">
<style type="text/css">
	.st0{fill:#41683C;}
	.st1{enable-background:new    ;}
</style>
<g>
	<path class="st0" d="M418.5,254c-35.8,7.6-112.3,5.7-166.6-7.9c-25.5-6.5-50.1-16-73.4-28.1c-19.3-9.9-39-21.6-59.2-29.6
		c-19.8-7.8-41-11-62.2-9.5c-17.1,1.2-37.4,6.5-47.8,21.6c-6.6,9.6-4.6,20.1,4,27.8c9.6,8.6,23.4,12.4,35.8,14.5
		c35.6,5.9,71.2-1.2,103.9-20.9c9-5.8,17.2-12.7,24.5-20.6c10-10,19.5-20.4,28.7-31.2c15.8-18.6,30.5-38.2,44.5-58.2
		c11-15.7,21.6-31.9,33.4-47c8.6-11,18.5-22,30.5-29.3c8.6-5.6,18.3-9.4,28.4-11.1c7.2-1.1,14.5-1.2,19.3,3
		c11.7,10.2-4.4,28.2-13.1,34.1c-16.3,11.2-36.5,15.7-55.4,17.5c-20.1,2-40.5,0.1-60.4-2.8c-66.8-9.7-130.3-32.6-171.9-49.9
		c41,21.6,116.8,46.1,135.6,50.7c20.1,5.2,40.7,8.5,61.4,9.8c19.8,1.2,39.7-0.2,59.2-4.4c21-5.1,36.5-14.5,46.6-30.5
		c3.1-5,5.7-11.3,4.9-17.3c-0.7-5.1-4.1-9.4-8.9-11.3c-6.7-2.3-13.9-2.6-20.7-0.7c-9.1,2-17.7,5.6-25.6,10.5
		c-12.7,7.9-22.9,19.3-32.2,31c-11.8,15-22.4,31-33.3,46.7c-13.9,20-28.4,39.6-44.2,58.2c-9.3,10.9-19,21.5-29.1,31.6
		c-7.4,7.6-15.7,14.3-24.8,19.8c-16.8,10.1-35.5,16.8-54.9,19.8c-16.6,2.7-33.5,2.3-49.9-1c-11.4-2.1-27.5-7.2-34.3-18
		c-2.5-4.5-2.9-9.9-1.2-14.8c2.7-7,8.2-12.5,15.3-15c18.7-7.6,41.4-7.6,61-4.2c21.1,3.7,40.5,13,59.3,22.9
		c21.7,11.5,43.2,23.2,66.4,31.8c51.5,19.1,107.6,25.4,162.3,22.1C389.3,262.9,404.2,259.5,418.5,254L418.5,254z"/>
	<path class="st0" d="M185.3,207.9c-19.6,18.5-41.8,35.5-67.4,44.7c-14.9,5.4-30.9,8.9-46.6,6.1c-9.3-1.7-19.4-6.4-23.2-15.9
		c-2-5.1-1.7-10.8,0.9-15.6c3.8-6.9,11.9-10.2,19.1-12.2c43.8-11.5,82.1,16.3,120,33.4c26.2,11.8,53.7,20.5,81.9,25.8
		c50,9.4,68.5,6.4,81.1,4.9c0.1,0,0.2-0.1,0.2-0.2s-0.1-0.2-0.2-0.2c-21.3,0.3-42.6-1.4-63.6-5.1c-30.6-5-60.6-13.5-89.2-25.4
		c-21.3-9.1-41.2-21.1-62.6-29.9c-19.8-8.1-41.9-11.9-63-7.1c-13,2.8-28.9,11.1-27.4,26c1,10.6,8.2,17.3,17.6,20.5
		c13.7,4.7,27.6,3.7,41.4,0.3c23.9-5.9,44.4-17.8,63.4-33.1c21-16.8,41.2-39.9,58.8-60.4c19.3-24.3,54.6-70,69.3-95.7
		C278,95.9,225.3,170.1,185.3,207.9z"/>
</g>
<g>
	<path class="st0" d="M417.9,252.1c-35.5,7.6-111.2,5.7-165.1-7.9c-25.2-6.5-49.6-15.8-72.7-27.8c-19.1-9.8-38.6-21.4-58.7-29.3
		c-19.6-7.7-40.6-10.9-61.6-9.4c-16.9,1.2-37,6.5-47.3,21.5c-6.6,9.6-4.5,19.9,4,27.6c9.5,8.5,23.1,12.3,35.4,14.3
		c35.3,5.8,70.6-1.2,103-20.7c8.9-5.8,17.1-12.6,24.3-20.4c9.9-9.9,19.4-20.3,28.5-30.9c15.7-18.4,30.3-37.8,44.1-57.7
		c10.9-15.6,21.4-31.6,33.1-46.6c8.5-10.9,18.3-21.8,30.3-29.1c8.5-5.6,18.1-9.3,28.1-11c7.1-1.1,14.4-1.2,19.1,2.9
		c11.6,10.1-4.4,27.9-13,33.8c-16.2,11.1-36.1,15.5-54.9,17.4c-19.9,2-40.1,0.1-59.9-2.7c-66.3-9.7-129.2-32.4-170.5-49.5
		C104.8,48,179.8,72.3,198.5,76.8c19.9,5.2,40.3,8.4,60.8,9.7c19.7,1.2,39.4-0.2,58.6-4.3c20.8-5,36.2-14.4,46.2-30.3
		c3.1-4.9,5.6-11.2,4.8-17.2c-0.7-5-4.1-9.3-8.8-11.2c-6.6-2.3-13.8-2.5-20.5-0.7c-9,2-17.6,5.5-25.4,10.4
		c-12.6,7.9-22.7,19.2-31.9,30.7c-11.7,14.9-22.2,30.7-33,46.2c-13.8,19.8-28.2,39.3-43.8,57.7c-9.2,10.8-18.8,21.3-28.8,31.3
		c-7.3,7.6-15.6,14.1-24.6,19.6c-16.7,10-35.2,16.7-54.4,19.7c-16.4,2.6-33.2,2.3-49.5-1c-11.3-2-27.3-7.2-34-17.8
		c-2.5-4.5-2.9-9.8-1.2-14.7c2.6-6.9,8.2-12.4,15.1-14.9c18.5-7.6,41-7.6,60.5-4.2c20.9,3.6,40.1,12.9,58.7,22.7
		c21.5,11.4,42.9,23,65.8,31.5c51,18.9,106.7,25.2,160.8,21.9C389,260.9,403.8,257.6,417.9,252.1L417.9,252.1z"/>
	<path class="st0" d="M186.8,206.4c-19.4,18.3-41.5,35.1-66.8,44.3c-14.7,5.3-30.6,8.8-46.2,6.1c-9.3-1.7-19.3-6.4-23-15.8
		c-2-5-1.7-10.7,0.9-15.4c3.8-6.8,11.8-10.1,19-12c43.4-11.4,81.4,16.2,118.9,33.1c26,11.7,53.2,20.3,81.2,25.6
		c49.5,9.3,67.9,6.4,80.4,4.8c0.1,0,0.2-0.1,0.2-0.2s-0.1-0.2-0.2-0.2c-21.1,0.3-42.2-1.4-63-5c-30.4-5-60-13.4-88.4-25.2
		c-21.1-9-40.8-20.9-62-29.6c-19.6-8.1-41.5-11.7-62.5-7c-12.9,2.8-28.6,11-27.1,25.8c1,10.5,8.1,17.1,17.5,20.3
		c13.5,4.7,27.4,3.7,41.1,0.3c23.6-5.8,44-17.6,62.8-32.8c20.8-16.7,40.8-39.6,58.3-59.9c19.2-24,54.1-69.3,68.7-94.9
		C278.7,95.4,226.5,168.9,186.8,206.4z"/>
</g>
<g>
	<g class="st1">
		<path class="st0" d="M290.8,181.5l-15.4-2.8c1.8-6.2,4.6-10.8,8.9-13.9c4.3-3.1,10.5-4.6,19.1-4.6c7.7,0,13.2,0.9,16.9,2.8
			c3.7,1.8,6.5,4,8,6.8c1.5,2.8,2.2,8,2.2,15.4l-0.3,20c0,5.5,0.3,9.9,0.9,12.6c0.6,2.8,1.5,5.5,3.1,8.6h-16.9
			c-0.3-1.2-0.9-2.8-1.5-4.9c-0.3-0.9-0.6-1.5-0.6-2.2c-2.8,2.8-6.2,4.9-9.2,6.5c-3.4,1.5-6.8,2.2-10.8,2.2c-6.8,0-12-1.8-15.7-5.5
			c-3.7-3.7-5.8-8.3-5.8-13.5c0-3.7,0.9-6.8,2.5-9.9c1.8-2.8,4.3-4.9,7.4-6.5c3.1-1.5,7.7-2.8,13.5-4c8-1.5,13.5-2.8,16.6-4.3v-1.8
			c0-3.4-0.9-5.5-2.5-7.1c-1.5-1.5-4.6-2.2-9.2-2.2c-3.1,0-5.5,0.6-7.1,1.8C293.2,176.2,292,178.4,290.8,181.5z M312.6,153.8h-10.8
			l-16.9-18.2H304L312.6,153.8z M313.6,195.3c-2.2,0.6-5.5,1.5-10.5,2.5c-4.9,0.9-7.7,2.2-9.2,3.1c-2.2,1.5-3.4,3.7-3.4,6.2
			c0,2.5,0.9,4.3,2.8,6.2c1.8,1.8,4,2.5,6.8,2.5c3.1,0,6.2-0.9,8.9-3.1c2.2-1.5,3.4-3.4,4-5.5c0.3-1.5,0.6-4.3,0.6-8.3V195.3z"/>
		<path class="st0" d="M437.3,226.4h-17.2v-33.3c0-7.1-0.3-11.4-1.2-13.5c-0.6-2.2-1.8-3.7-3.7-4.9c-1.5-1.2-3.7-1.8-5.8-1.8
			c-3.1,0-5.5,0.9-8,2.5c-2.5,1.5-4,3.7-4.9,6.5c-0.9,2.8-1.2,7.7-1.2,14.8v29.2h-17.2v-64.7h16v9.5c5.5-7.4,12.6-11.1,21.2-11.1
			c3.7,0,7.1,0.6,10.5,2.2c3.4,1.5,5.5,3.1,7.1,5.2c1.5,2.2,2.8,4.6,3.4,7.1s0.9,6.5,0.9,11.4v40.9H437.3z"/>
		<path class="st0" d="M484.1,230.4l19.4,2.5c0.3,2.2,0.9,3.7,2.2,4.6c1.5,1.2,4.3,1.8,7.7,1.8c4.3,0,7.7-0.6,10.2-2.2
			c1.5-0.9,2.8-2.5,3.4-4.3c0.6-1.5,0.9-4,0.9-7.7v-9.5c-5.2,7.1-11.7,10.5-19.4,10.5c-8.6,0-15.7-3.7-20.6-11.1
			c-4-5.8-5.8-12.9-5.8-21.6c0-10.8,2.5-19.1,7.7-24.9c5.2-5.8,11.7-8.6,19.4-8.6c8,0,14.5,3.4,19.7,10.5v-8.9h16v57.9
			c0,7.7-0.6,13.2-1.8,17.2c-1.2,3.7-3.1,6.8-5.2,8.9c-2.2,2.2-5.2,3.7-9.2,4.9c-3.7,1.2-8.6,1.8-14.5,1.8
			c-11.1,0-18.8-1.8-23.4-5.5c-4.6-3.7-6.8-8.6-6.8-14.2C484.1,232,484.1,231.4,484.1,230.4z M499.5,192.6c0,6.8,1.2,12,4,15.1
			c2.8,3.1,5.8,4.9,9.9,4.9c4.3,0,7.7-1.5,10.5-4.9s4.3-8,4.3-14.5c0-6.8-1.2-11.7-4-14.8c-2.8-3.4-6.2-4.9-10.5-4.9
			c-4,0-7.4,1.5-10.2,4.9C500.7,181.8,499.5,186.1,499.5,192.6z"/>
	</g>
	<g class="st1">
		<path class="st0" d="M611,226.4v-89.3h17.5l36.6,59.4v-59.4h16.6v89.3h-18.2l-36-58.2v58.2H611z"/>
	</g>
	<g class="st1">
		<path class="st0" d="M741.8,137.1v32.6c5.5-6.5,12-9.5,19.7-9.5c4,0,7.4,0.6,10.8,2.2c3.1,1.5,5.5,3.4,7.1,5.5
			c1.5,2.2,2.8,4.9,3.4,7.4c0.6,2.8,0.9,7.1,0.9,12.9v37.9h-17.2v-34.2c0-6.8-0.3-11.1-0.9-12.9c-0.6-1.8-1.8-3.4-3.4-4.3
			c-1.5-0.9-3.7-1.5-6.2-1.5c-2.8,0-5.2,0.6-7.7,2.2c-2.2,1.2-4,3.4-4.9,6.2c-0.9,2.8-1.5,6.8-1.5,12.3v32.3h-17.2v-89.3h17.2V137.1
			z"/>
		<path class="st0" d="M828.3,193.2c0-5.5,1.5-11.1,4.3-16.6s6.8-9.2,12-12.3c5.2-3.1,10.8-4.3,17.2-4.3c9.9,0,17.9,3.1,24,9.5
			c6.2,6.5,9.2,14.5,9.2,24c0,9.9-3.1,17.9-9.5,24.3c-6.5,6.5-14.2,9.5-23.7,9.5c-5.8,0-11.7-1.2-16.9-4c-5.2-2.8-9.5-6.5-12.3-11.7
			C829.6,206.7,828.3,200.6,828.3,193.2z M845.9,194.1c0,6.5,1.5,11.4,4.6,14.8c3.1,3.4,6.8,5.2,11.4,5.2c4.3,0,8.3-1.8,11.1-5.2
			c2.8-3.4,4.6-8.3,4.6-14.8S876,183,873,179.6s-6.8-5.2-11.1-5.2c-4.3,0-8.3,1.8-11.4,5.2C847.1,182.7,845.9,187.6,845.9,194.1z
			 M862.5,146.4c2.2-0.6,3.4-1.5,3.4-2.8c0-0.9-0.6-1.8-1.8-2.5c-1.8-0.9-4.3-1.5-8-1.5c-1.2,0-3.1,0-5.8,0.3l-0.6-6.2
			c1.5-0.3,4.6-0.6,8.6-0.3c4.9,0,8.9,0.9,12.3,2.5c3.4,1.8,5.2,4,5.2,7.1c0.3,4.3-3.4,6.8-11.1,7.7v3.1h-6.8V147
			C860.3,147,861.9,146.7,862.5,146.4z"/>
	</g>
</g>
</svg>
