<svg id="Layer_1" data-name="Layer 1" xmlns="http://www.w3.org/2000/svg" viewBox="0 0 442 442"><defs><style>.cls-1{fill:none;stroke:#000;stroke-miterlimit:10;stroke-width:5.09px;}</style></defs><path class="cls-1" d="M318.83,304.49H89.08c-.36-20.08-9-34.65-28.58-40.46-17-5-31.28.64-42.48,14.19-.23-.12-.55-.21-.55-.3,0-8.27-.12-16.55,0-24.82a4.7,4.7,0,0,1,1.29-2.72c5.9-6.68,11.82-13.34,17.87-19.88A11.54,11.54,0,0,1,41,227.68c8.78-3.14,17.65-6,26.4-9.23a6.23,6.23,0,0,0,3.28-3.32q15.82-44.31,31.42-88.69c.3-.86.45-1.77.78-3.12H77.63C80,119,82,115.15,84.25,111.51c.47-.74,2.22-.93,3.38-.94q37.73-.07,75.45,0H424.61v12.76a69.4,69.4,0,0,1-7.06-.05c-2.86-.28-3.57.8-3.56,3.57.1,26.74.06,53.49.06,80.23,0,12.63,0,25.25,0,37.88,0,2.37,0,4.2,3.24,4,.51,0,1.59,1.92,1.61,3,.12,9.23.07,18.47.07,27.7,0,5.43,0,5.43,5.56,6.17v18.56H397.14c.5-13.9-4.41-25.49-15.54-34.08-8.2-6.33-17.6-8.55-27.84-7.68C338.62,263.86,318.1,277.48,318.83,304.49ZM180.16,240.37c.46-1.85.83-3.29,1.16-4.73q8.16-36.45,16.32-72.9c1.09-4.87,1.15-4.76,6.08-3.68,2.3.5,3.25,1.34,2.67,3.89-4.86,21.39-9.61,42.81-14.39,64.21-1,4.29-1.9,8.57-2.93,13.21h11c7.82,0,10.14,2.27,10.15,9.95,0,10.51.11,21-.07,31.52,0,3,.93,3.73,3.8,3.7q17.35-.23,34.7,0c2.73,0,3.66-.62,3.61-3.51-.17-11-.08-22.07-.06-33.11,0-5.86,2.67-8.5,8.6-8.54,5.73,0,11.46-.08,17.19,0,2.2,0,3.27-.38,3.81-2.93,3.52-16.47,7.3-32.9,11-49.34,2-9,4-18,6.11-27,.24-1,1.17-2.57,2-2.72,4.54-.87,7,1.72,6,6.07q-7.39,32.88-14.8,65.76c-.72,3.24-1.32,6.52-2.05,10.09,4.72,0,9-.06,13.18,0s6.68,2.21,7.71,5.87a9,9,0,0,0,1.71,2.42c.44-.92,39.85,0,40.24.12.36-1.08,48.37.82,53.43-.58V123.29h-5.87q-141.68,0-283.34,0c-7.06,0-5.47-1.08-7.82,5.57q-15.87,44.81-31.62,89.63a27.9,27.9,0,0,0-.76,4.47,17.12,17.12,0,0,0,2-.78c9.24-5.83,18.5-11.63,27.66-17.58.86-.57,1.07-2.14,1.75-3.61a16.27,16.27,0,0,0,4.25.83c3.58-.11,5.26,2,6.8,4.74A83.26,83.26,0,0,0,125,215.4a5.17,5.17,0,0,0,3.48,2c7.32.18,14.64,0,22,.14,2.53.05,3.16-.92,2.86-3.2-.61-4.52-.91-9.08-1.72-13.56-.4-2.27.47-3.08,2.17-4.21a93.76,93.76,0,0,0,11.14-8.35c3.7-3.35,3.65-8.21.48-11.27s-7.64-2.79-11.32.7c-1.57,1.49-3.3,2.8-5.16,4.36-1.85-9.09,5.54-15.59,14.14-13,6.87,2,10.48,7.18,12.65,13.63a84.32,84.32,0,0,1,4.18,37c-1.35,11.91-6,16.52-18.06,16.63-6.68.07-13.37,0-20.06,0-1.13,0-2.26.1-3.69.17.25,1.37.38,2.4.62,3.4,2.33,9.57,4.74,19.13,7,28.72a9.15,9.15,0,0,1-6.41,11.22c-5.37,1.64-10.31-1.61-11.9-8-3.49-14-7-28-10.24-42-.55-2.45.59-5.28,1-7.94.12-.77.75-1.77.46-2.26-2.35-4-4.87-7.84-7.44-11.91-10.28,6.53-20.1,12.81-30,19-1.8,1.14-.92,2.25-.36,3.49q12.1,26.46,24.16,52.93a3.64,3.64,0,0,0,3.85,2.47c13.16-.09,26.32,0,39.48-.06.82,0,1.64-.12,2.73-.21.05-1.27.14-2.41.14-3.54,0-10.62,0-21.23,0-31.84,0-6.87,2.6-9.48,9.4-9.5C167,240.35,173.5,240.37,180.16,240.37ZM368.77,222.5"/><path class="cls-1" d="M358,331.47a30,30,0,1,1,30-30.25A30.09,30.09,0,0,1,358,331.47Zm0-43.56a13.33,13.33,0,0,0-13.52,13.43,13.55,13.55,0,1,0,27.1.24A13.29,13.29,0,0,0,358,287.91Z"/><path class="cls-1" d="M19.77,301.43a30,30,0,1,1,29.84,30A29.94,29.94,0,0,1,19.77,301.43Zm29.82-13.51a13.38,13.38,0,0,0-13.46,13.52,13.62,13.62,0,1,0,13.46-13.52Z"/><path class="cls-1" d="M236.2,236.19c2.62,10.69,5.09,20.75,7.57,30.82,1.37,5.59-.23,9.94-4.44,12-5.45,2.71-11.57,0-13.26-6.16-1.93-7.05-3.51-14.19-5.25-21.28-1.8-7.3-3.73-14.57-5.39-21.9-1.6-7.1,2.49-12.17,9.77-12.23,10.18-.07,20.36,0,30.54,0a6.17,6.17,0,0,0,3.55-.92l-2.63-1.34c4.2-5.06,7.57-10.66,8.5-17.13a84.81,84.81,0,0,0,.57-17c-.26-4.24-4.08-6.66-8.14-6.21s-6.73,3.81-6.69,8.25c0,3.69-.22,7.38-.43,11.07a3.31,3.31,0,0,1-1,1.88c-1-6.42-4.12-12.51-2.22-19.26,1.81-6.43,6.42-9.48,12.95-8.12a16.77,16.77,0,0,1,12.55,10.68,76.72,76.72,0,0,1,5.95,32.89A98.79,98.79,0,0,1,277.8,223c-1.24,8-5.69,12.35-13.79,12.86-7.71.48-15.47.25-23.21.33C239.45,236.2,238.09,236.19,236.2,236.19Z"/><path class="cls-1" d="M242.32,167.27a16.56,16.56,0,0,1-16.69-16.73,16.79,16.79,0,1,1,16.69,16.73Z"/><path class="cls-1" d="M160.69,150.79a16.71,16.71,0,0,1-33.42-.23,16.71,16.71,0,1,1,33.42.23Z"/><path class="cls-1" d="M126.13,202c-5.44-.81-10.89-1.52-16.3-2.48-4-.71-6.32-3.85-5.6-7.13.78-3.49,3.83-5.39,7.86-4.51,8.07,1.75,16.16,2.37,24.3.75A35.56,35.56,0,0,0,155.05,179c3.14-3.11,6.71-3.43,9.2-.91,2.67,2.69,2.52,6.07-.72,9.25C153.18,197.54,140.44,201.55,126.13,202Z"/><path class="cls-1" d="M231.43,215.19c2.09-.89,4.23-1.7,6.27-2.69,11.06-5.37,16.34-15.45,15-28.59-.47-4.7,1.81-7.53,6-7.4a5.31,5.31,0,0,1,5.52,4.76c1.91,12.39-.84,23.55-9.24,33.08a3.48,3.48,0,0,1-2,1.31c-7.15.1-14.3.06-21.44.06Z"/><path class="cls-1" d="M106.4,186l-4.79,7.16c-.88-2.14-2.42-4.21-2.25-6.12.1-1.17,2.72-2.42,4.42-3C104.43,183.78,105.69,185.39,106.4,186Z"/></svg>