<svg id="Layer_1" data-name="Layer 1" xmlns="http://www.w3.org/2000/svg" viewBox="0 0 489.42 489.42"><defs><style>.cls-1{fill:none;stroke:#000;stroke-miterlimit:10;stroke-width:10px;}</style></defs><path d="M320.42,302.23c1.81-.73,3.62-2.1,5.44-2.1q52.92-.18,105.84,0c.73,0,1.46.37,2.58,2.06-2,.75-4.08,2.16-6.13,2.17-35.07.12-70.14.07-105.22,0a7.58,7.58,0,0,1-1.77-.42Z"/><path d="M465.86,350.13c-11.85,0-23.69.09-35.53-.09-1.93,0-3.83-1.27-5.75-2,1.81-.87,3.6-2.49,5.41-2.5q36.47-.25,72.93,0c1.61,0,3.2,1.5,4.8,2.29-1.7.75-3.38,2.12-5.08,2.14-12.26.19-24.52.1-36.78.1Z"/><path d="M67.42,303.21c2.75-1.5,4.07-2.84,5.39-2.85q44.19-.18,88.38,0c1.23,0,2.45,1.43,3.68,2.19-1.27.7-2.53,2-3.8,2q-44.19.18-88.38.05C71.55,304.59,70.42,304,67.42,303.21Z"/><path d="M402.51,325c-1.44.8-2.88,2.29-4.33,2.3q-31.08.22-62.14,0c-1.31,0-2.62-1.26-3.92-1.93.87-.85,1.74-2.44,2.62-2.45,22.32-.13,44.64-.1,67-.1Z"/><path d="M172.43,324.48c-2.48,1.33-3.94,2.79-5.42,2.8q-29.26.24-58.54,0c-1.3,0-2.59-1.28-3.88-2,1.09-.85,2.18-2.43,3.28-2.44,20.54-.08,41.09,0,61.64.12C169.88,323,170.24,323.36,172.43,324.48Z"/><path d="M486.22,304.31c-8.08.14-16.16.38-24.24.32-1.51,0-3-1.23-4.53-1.89,1.56-.88,3.09-2.48,4.67-2.53q24.22-.66,48.47-.81c1.5,0,3,1.28,4.5,2-1.54.84-3.06,2.35-4.64,2.43C502.38,304.17,494.3,304.17,486.22,304.31Z"/><path d="M11.88,273.12H60.67l.75,1.85c-1.52.79-3,2.23-4.58,2.25q-20.81.27-41.63,0c-1.52,0-3-1.46-4.53-2.24Z"/><path d="M475.9,327.42c-6.66,0-13.32.15-20-.12-1.62-.06-3.19-1.54-4.78-2.37,1.46-.72,2.91-2.05,4.38-2.06q20.6-.24,41.18,0c1.38,0,2.75,1.47,4.13,2.26-1.45.75-2.88,2.1-4.36,2.15-6.85.24-13.72.11-20.58.11Z"/><path d="M215.51,322.78c4.36,0,8.73-.16,13.07.09,1.3.08,2.53,1.3,3.79,2-1.16.84-2.3,2.37-3.48,2.4q-13.68.3-27.37,0c-1.3,0-2.56-1.38-3.84-2.11,1.38-.8,2.72-2.19,4.15-2.29C206.38,322.6,211,322.78,215.51,322.78Z"/><path d="M317.4,324.48c-2.47,1.33-3.94,2.79-5.42,2.8q-29.26.24-58.54,0c-1.29,0-2.58-1.28-3.88-2,1.1-.85,2.19-2.43,3.28-2.44,20.55-.08,41.1,0,61.64.12C314.85,323,315.22,323.36,317.4,324.48Z"/><path d="M360.49,322.78c4.36,0,8.72-.16,13.06.09,1.3.08,2.54,1.3,3.8,2-1.16.84-2.3,2.37-3.48,2.4q-13.68.3-27.38,0c-1.29,0-2.56-1.38-3.83-2.11,1.38-.8,2.72-2.19,4.15-2.29C351.35,322.6,355.93,322.78,360.49,322.78Z"/><path d="M275.27,304.08H237.56l-.54-1.7c1.47-.7,2.9-1.9,4.43-2C258.16,298.8,272.29,300,275.27,304.08Z"/><path d="M179.19,303.82c3.79-4.87,34.34-4.89,38.3,0Z"/><path d="M267.25,344c1.81-.73,3.62-2.1,5.44-2.1q52.92-.18,105.85,0c.72,0,1.45.38,2.58,2.06-2.05.76-4.09,2.17-6.13,2.17-35.08.12-70.15.07-105.22,0a7.58,7.58,0,0,1-1.77-.42Z"/><path d="M14.25,344.94c2.75-1.5,4.07-2.84,5.39-2.85q44.19-.18,88.38,0c1.23,0,2.45,1.43,3.68,2.19-1.27.7-2.53,2-3.8,2q-44.19.18-88.38.05C18.39,346.32,17.26,345.75,14.25,344.94Z"/><path d="M349.35,366.72c-1.45.8-2.89,2.29-4.34,2.3q-31.06.23-62.14,0c-1.31,0-2.61-1.26-3.92-1.93.88-.85,1.75-2.44,2.63-2.45,22.32-.13,44.63-.1,66.95-.1Z"/><path d="M119.26,366.21c-2.47,1.33-3.94,2.79-5.42,2.8q-29.27.24-58.54,0c-1.29,0-2.58-1.28-3.88-2,1.1-.85,2.19-2.43,3.28-2.44,20.55-.08,41.09,0,61.64.12C116.71,364.74,117.08,365.09,119.26,366.21Z"/><path d="M162.35,364.51c4.36,0,8.72-.16,13.06.09,1.3.08,2.53,1.3,3.8,2-1.16.84-2.31,2.37-3.48,2.4q-13.69.3-27.38,0c-1.29,0-2.56-1.38-3.83-2.11,1.38-.8,2.72-2.19,4.15-2.29C153.21,364.33,157.79,364.51,162.35,364.51Z"/><path d="M264.24,366.21c-2.48,1.33-3.95,2.79-5.42,2.8q-29.28.24-58.54,0c-1.3,0-2.59-1.28-3.88-2,1.09-.85,2.18-2.43,3.28-2.44,20.54-.08,41.09,0,61.64.12C261.68,364.74,262.05,365.09,264.24,366.21Z"/><path d="M307.32,364.51c4.36,0,8.73-.16,13.07.09,1.3.08,2.53,1.3,3.79,2-1.16.84-2.3,2.37-3.48,2.4q-13.68.3-27.38,0c-1.29,0-2.55-1.38-3.83-2.11,1.38-.8,2.72-2.19,4.15-2.29C298.18,364.33,302.76,364.51,307.32,364.51Z"/><path d="M222.1,345.81H184.39l-.54-1.7c1.48-.7,2.91-1.9,4.43-2C205,340.53,219.12,341.77,222.1,345.81Z"/><path d="M126,345.55c3.78-4.87,34.33-4.89,38.3,0Z"/><path d="M473,367c1.82-.74,3.63-2.1,5.44-2.11q52.93-.18,105.85,0c.73,0,1.46.38,2.58,2.06-2,.76-4.08,2.17-6.13,2.18-35.07.12-70.15.06-105.22,0a7.61,7.61,0,0,1-1.77-.43Z"/><path d="M360,368c2.76-1.5,4.07-2.84,5.4-2.84q44.19-.19,88.38,0c1.22,0,2.45,1.43,3.67,2.19-1.26.7-2.53,2-3.79,2q-44.19.17-88.38,0C364.14,369.35,363,368.77,360,368Z"/><path class="cls-1" d="M50.94,144.88c-11.72.66-23.43,1.54-35.16,1.89-8,.23-9.87,4.55-9.44,11.51,1.34,22.05,2.53,44.11,3.75,66.16.3,5.31,1,10.34,7.82,10.86,7,.52,13.08-1,15.31-8.61,3.3-11.25,6.63-22.52,9.15-34,1.9-8.67,6.68-12.06,15.24-12.16,9.77-.12,19.53-1.21,29.3-1.49,7.74-.21,11.08-3.56,10.61-11.47-1.71-28.6.39-25.2-25.65-23.92-7,.34-14,.77-20.93,1.16Z"/><path class="cls-1" d="M11,133.76l78.6-4.39C85.26,121.1,79.5,116.81,71.4,117q-21.78.61-43.52,2.43C19.86,120.15,14.29,124.76,11,133.76Z"/><path class="cls-1" d="M477.44,132.78c-6.41-10.66-16.55-11.36-23.79-1.95A82,82,0,0,1,443.74,142a120.41,120.41,0,0,1-46.88,26,34.65,34.65,0,0,0-7.75,3.27h0s-13.94,3.69-25.25,5.6l-13.25.74h0c-20.46,1.13-40.69,2.27-60.88,3.53l0-.13-32.18,1.8-3.22.18-5.74.32h0q-92.76,5.16-185.51,10.39c-9.52.54-16.12,11.79-15.45,25.73.71,14.69,8.3,25.1,18.5,24.55q84-4.5,167.94-9.43h0l29.41-1.58a1.34,1.34,0,0,0,.28,0l19.06-1h0q26.58-1.47,53.17-3.09h0l34.07-1.72.74,0,.76,0v0a34.69,34.69,0,0,0,5.22-.71c24.74-5.55,48.7-15,71.4-30.3,10.41-7,20.31-15.35,28.53-27.41C483.52,158.71,483.71,143.19,477.44,132.78Z"/><path class="cls-1" d="M470.4,193.38c-2.16,2-4,3.87-5.94,5.43-30.3,24.43-62.54,39.3-97.35,41.63l-1.63.09a17.23,17.23,0,0,0-2.5.13l-29.45,1.55-.1.16q-33,1.8-65.95,3.67l-.35,0-30.58,1.71h0Q161.22,252,85.89,256.06c-2.76.15-3.25,2.1-3.1,5.79.52,12.51,7.08,21.16,16.33,20.67q64.63-3.45,129.25-7.23l0,.08,40.91-2.32h0q23-1.25,45.92-2.56l0,0,48.38-2.17.79,0,1.43-.06v0c26.95-1.48,52.87-9.92,77.53-26.46,9.09-6.09,17.77-13.41,24.87-24.34C472.63,210.52,473.47,201.73,470.4,193.38Z"/></svg>