<?xml version="1.0" encoding="utf-8"?>
<!-- Generator: Adobe Illustrator 26.2.1, SVG Export Plug-In . SVG Version: 6.00 Build 0)  -->
<svg version="1.1" id="Layer_1" xmlns="http://www.w3.org/2000/svg" xmlns:xlink="http://www.w3.org/1999/xlink" x="0px" y="0px"
	 viewBox="0 0 800 800" style="enable-background:new 0 0 800 800;" xml:space="preserve">
<g>
	<path d="M60.7,647.2l45.7-45.7l46.8,47.6c1,1,2.1,1.8,3.3,2.5l10.8-30.7l-50.2-51c-2.8-2.8-6.6-4.4-10.6-4.5
		c-3.8,0.3-7.8,1.6-10.6,4.4l-56.4,56.4c-5.8,5.8-5.8,15.3,0,21.1C45.4,653.1,54.8,653.1,60.7,647.2z"/>
	<path d="M628.7,352.3c-2.1-5.9-7.8-9.9-14.1-9.9c-6.3,0-11.9,4-14.1,9.9l-51,141.8l-82.8-230c-2.1-5.9-7.8-9.9-14.1-9.9
		s-11.9,4-14.1,9.9L355,496.7L303,352.4c-2.1-5.9-7.8-9.9-14.1-9.9c-6.3,0-11.9,4-14.1,9.9l-99.5,276.7c0,0,0-0.1-0.1-0.1L151.5,696
		c0,0-24.2,0.3-31,0.4v-23.7l21,21.4l11.1-31.4l-35.4-36c-2.8-2.8-6.6-4.4-10.6-4.5c-3.8,0.1-7.8,1.6-10.6,4.4l-56.4,56.4
		c-5.8,5.8-5.8,15.3,0,21.1c5.8,5.8,15.3,5.8,21.1,0l29.9-29.9v36.7c0,0.3-0.1,0.5-0.1,0.7c0.1,8.2,6.8,14.8,14.9,14.8
		c0.1,0,0.1,0,0.2,0c17.4-0.2,34.9-0.3,52.3-0.4c43.3-0.4,86.5-0.6,129.7-0.8c45-0.2,89.9-0.2,134.8-0.2c19.8,0,39.7,0.1,59.5,0.1
		c44.8,0.2,89.4,0.4,133.8,0.8c-0.7,0.2-1.4,0.2-2.1,0.3H742c4.9,0,9.4-2.4,12.2-6.4c2.8-4,3.5-9.1,1.8-13.7L628.7,352.3z
		 M614.7,401.5l21.8,60.5l-21.9,25.2l-22-24.3L614.7,401.5z M452.7,313.2l31.2,86.7l-32.4,35.8l-31-32.9L452.7,313.2z M289,401.7
		l22,61.1l-21.3,24.5l-22.5-24.9L289,401.7z M282.8,696.5h-99.9l0.2-0.7l72.5-201.6l23.1,25.5c2.8,3.1,6.9,4.9,11.1,4.9
		c0,0,0.1,0,0.1,0c4.3,0,8.3-1.9,11.1-5.1l21.4-24.6l16.5,45.9L282.8,696.5z M476.7,696.6h-49.9h-112l0-0.1h-0.2L355,585l15.9-44.2
		l38.3-106.5l31.7,33.6c2.8,3,6.8,4.7,10.9,4.7c0,0,0.1,0,0.1,0c4.2,0,8.1-1.8,10.9-4.9l32.6-36l38.3,106.4l15.9,44.2l40.8,114.2
		L476.7,696.6L476.7,696.6z M649.7,696.3h-27.3h-0.3l-56.6-158.1l15.6-43.4l22.6,24.9c2.8,3.1,6.9,4.9,11.1,4.9c0,0,0.1,0,0.1,0
		c4.3,0,8.3-1.9,11.1-5.1l22-25.3l72.7,202.1L649.7,696.3L649.7,696.3z"/>
	<path d="M60.7,590.4l45.7-45.7l46.8,47.6c2.9,3,6.8,4.5,10.7,4.5c3.8,0,7.6-1.4,10.5-4.3c5.9-5.8,6-15.3,0.2-21.1L117.2,513
		c-2.8-2.8-6.6-4.4-10.6-4.5c-3.8-0.2-7.8,1.6-10.6,4.4l-56.4,56.4c-5.8,5.8-5.8,15.3,0,21.1C45.4,596.3,54.8,596.3,60.7,590.4z"/>
	<path d="M103.1,277.8c29.8,0,54-24.2,54-54c0-29.8-24.2-54-54-54s-54,24.2-54,54C49.1,253.6,73.3,277.8,103.1,277.8z M103.1,199.7
		c13.3,0,24.1,10.8,24.1,24.1s-10.8,24.1-24.1,24.1S79,237.1,79,223.8S89.8,199.7,103.1,199.7z"/>
	<path d="M591.5,102.4c0.1,0,0.2,0,0.3,0c0.5,0,43.1-0.5,66.6,23c2.8,2.8,6.5,4.2,10.2,4.2c0.8,0,1.7-0.1,2.5-0.2
		c0.8,0.1,1.7,0.2,2.5,0.2c3.7,0,7.3-1.4,10.1-4.2c23.4-23.4,65.7-23,66.6-23c8,0.2,14.5-6.1,14.7-14c0.2-7.9-6.1-14.5-14-14.7
		c-2.1-0.1-47.5-0.7-79.9,24.7c-32.4-25.4-77.8-24.7-79.9-24.7c-7.9,0.2-14.2,6.7-14,14.6C577.3,96.1,583.7,102.4,591.5,102.4z"/>
	<path d="M494.8,171.2c0.3,0,32.3-0.3,50,21.8c2.8,3.5,7,5.4,11.2,5.4c0.7,0,1.3-0.2,2-0.3c0.7,0.1,1.3,0.3,2,0.3
		c4.2,0,8.4-1.8,11.2-5.4c17.7-22.1,49.3-21.9,50.1-21.8c7.9,0.2,14.5-6,14.7-13.9c0.2-7.9-6-14.5-13.9-14.8
		c-1.7-0.1-37.3-0.7-64.1,23c-26.7-23.7-62.4-23-64.1-23c-7.9,0.2-14.2,6.8-13.9,14.8C480.2,165.2,486.9,171.7,494.8,171.2z"/>
</g>
</svg>
