<?xml version="1.0" encoding="utf-8"?>
<!-- Generator: Adobe Illustrator 26.2.1, SVG Export Plug-In . SVG Version: 6.00 Build 0)  -->
<svg version="1.1" id="Layer_1" xmlns="http://www.w3.org/2000/svg" xmlns:xlink="http://www.w3.org/1999/xlink" x="0px" y="0px"
	 viewBox="0 0 32 32" style="enable-background:new 0 0 32 32;" xml:space="preserve">
<path d="M16.5,4C14.6,4,13,5.6,13,7.5s1.6,3.5,3.5,3.5S20,9.4,20,7.5S18.4,4,16.5,4z M16.5,6C17.3,6,18,6.7,18,7.5S17.3,9,16.5,9
	S15,8.3,15,7.5S15.7,6,16.5,6z M11.1,10.5c-0.3,0-0.5,0-0.8,0c-0.5,0.1-1,0.3-1.5,0.7C8,12,7.5,13.1,7.1,14.9C7,15.4,7,16,7.3,16.5
	s0.7,0.7,1.1,0.9c0.7,0.3,1.5,0.4,1.9,0.5l0.5-1.9c-0.6-0.1-1.2-0.2-1.5-0.4C9,15.5,9,15.5,9,15.5c0,0,0-0.1,0-0.2
	c0.3-1.5,0.8-2.2,1.1-2.5s0.6-0.3,1.2-0.2l0.4-2C11.6,10.5,11.4,10.5,11.1,10.5z M12.8,10.8l-1.5,6.7c-0.2,0.8,0.1,1.6,0.8,2
	l3.5,2.8l0.9,5.7h2l-0.9-6c-0.1-0.5-0.3-1-0.8-1.3l-3.5-2.8l1-4.7l1,0.3l1.8,1.7c0.6,0.6,1.4,0.7,2.2,0.4L21,15v13h2V11h-2v1.8
	l-2.4,1l-1.8-1.7c-0.2-0.2-0.5-0.4-0.9-0.5L12.8,10.8z M11.5,20.6l-0.8,2.5L8.2,28h2.2l2-3.9c0.1-0.1,0.1-0.2,0.1-0.3l0.6-1.8
	L11.5,20.6z"/>
</svg>
