<?xml version="1.0" encoding="utf-8"?>
<!-- Generator: Adobe Illustrator 26.2.1, SVG Export Plug-In . SVG Version: 6.00 Build 0)  -->
<svg version="1.1" id="Group_1_copy" xmlns="http://www.w3.org/2000/svg" xmlns:xlink="http://www.w3.org/1999/xlink" x="0px"
	 y="0px" viewBox="0 0 912 301" style="enable-background:new 0 0 912 301;" xml:space="preserve">
<style type="text/css">
	.st0{fill:#D7C59D;}
	.st1{enable-background:new    ;}
</style>
<g>
	<path class="st0" d="M418.8,253.1c-35.5,7.6-111.2,5.7-165.1-7.9c-25.2-6.5-49.6-15.8-72.7-27.8c-19.1-9.8-38.6-21.4-58.7-29.3
		c-19.6-7.7-40.6-10.9-61.6-9.4c-16.9,1.2-37,6.5-47.3,21.5c-6.6,9.6-4.5,19.9,4,27.6c9.5,8.5,23.1,12.3,35.4,14.3
		c35.3,5.8,70.6-1.2,103-20.7c8.9-5.8,17.1-12.6,24.3-20.4c9.9-9.9,19.4-20.3,28.5-30.9c15.7-18.4,30.3-37.8,44.1-57.7
		c10.9-15.6,21.4-31.6,33.1-46.6c8.5-10.9,18.3-21.8,30.3-29.1c8.5-5.6,18.1-9.3,28.1-11c7.1-1.1,14.4-1.2,19.1,2.9
		c11.6,10.1-4.4,27.9-13,33.8c-16.2,11.1-36.1,15.5-54.9,17.4c-19.9,2-40.1,0.1-59.9-2.7C169.2,67.4,106.3,44.7,65,27.6
		C105.7,49,180.7,73.3,199.4,77.8c19.9,5.2,40.3,8.4,60.8,9.7c19.7,1.2,39.4-0.2,58.6-4.3c20.8-5,36.2-14.4,46.2-30.3
		c3.1-4.9,5.6-11.2,4.8-17.2c-0.7-5-4.1-9.3-8.8-11.2c-6.6-2.3-13.8-2.5-20.5-0.7c-9,2-17.6,5.5-25.4,10.4
		c-12.6,7.9-22.7,19.2-31.9,30.7c-11.7,14.9-22.2,30.7-33,46.2c-13.8,19.8-28.2,39.3-43.8,57.7c-9.2,10.8-18.8,21.3-28.8,31.3
		c-7.3,7.6-15.6,14.1-24.6,19.6c-16.7,10-35.2,16.7-54.4,19.7c-16.4,2.6-33.2,2.3-49.5-1c-11.3-2-27.3-7.2-34-17.8
		c-2.5-4.5-2.9-9.8-1.2-14.7c2.6-6.9,8.2-12.4,15.1-14.9c18.5-7.6,41-7.6,60.5-4.2c20.9,3.6,40.1,12.9,58.7,22.7
		c21.5,11.4,42.9,23,65.8,31.5c51,18.9,106.7,25.2,160.8,21.9C389.9,261.9,404.7,258.6,418.8,253.1L418.8,253.1z"/>
	<path class="st0" d="M187.7,207.4c-19.4,18.3-41.5,35.1-66.8,44.3c-14.7,5.3-30.6,8.8-46.2,6.1c-9.3-1.7-19.3-6.4-23-15.8
		c-2-5-1.7-10.7,0.9-15.4c3.8-6.8,11.8-10.1,19-12c43.4-11.4,81.4,16.2,118.9,33.1c26,11.7,53.2,20.3,81.2,25.6
		c49.5,9.3,67.9,6.4,80.4,4.8c0.1,0,0.2-0.1,0.2-0.2c0-0.1-0.1-0.2-0.2-0.2c-21.1,0.3-42.2-1.4-63-5c-30.4-5-60-13.4-88.4-25.2
		c-21.1-9-40.8-20.9-62-29.6c-19.6-8.1-41.5-11.7-62.5-7c-12.9,2.8-28.6,11-27.1,25.8c1,10.5,8.1,17.1,17.5,20.3
		c13.5,4.7,27.4,3.7,41.1,0.3c23.6-5.8,44-17.6,62.8-32.8c20.8-16.7,40.8-39.6,58.3-59.9c19.2-24,54.1-69.3,68.7-94.9
		C279.6,96.4,227.4,169.9,187.7,207.4z"/>
	<g class="st1">
		<path class="st0" d="M274.6,178c-0.7-0.7-1.1-1.6-1.1-2.7c0-1,0.4-1.8,1.1-2.6c0.7-0.7,1.7-1.1,2.7-1.1c1.1,0,2,0.4,2.7,1.1
			c0.7,0.7,1.1,1.6,1.1,2.6c0,1.1-0.4,2-1.1,2.7c-0.7,0.7-1.7,1.1-2.7,1.1C276.2,179.1,275.3,178.8,274.6,178z M274.6,187.6h5.3
			v38.9h-5.3V187.6z"/>
	</g>
	<g class="st1">
		<path class="st0" d="M333.5,224.2c-1,0.9-2.2,1.6-3.7,2s-3,0.7-4.5,0.7c-3.7,0-6.5-1-8.4-3c-2-2-3-4.8-3-8.4v-23.5h-7v-4.4h7v-8.5
			h5.3v8.5H331v4.4h-11.8v23.2c0,2.3,0.6,4.1,1.7,5.3c1.2,1.2,2.8,1.8,5,1.8c1.1,0,2.1-0.2,3.1-0.5c1-0.3,1.9-0.8,2.6-1.5
			L333.5,224.2z"/>
	</g>
	<g class="st1">
		<path class="st0" d="M381,224.2c-1,0.9-2.2,1.6-3.7,2c-1.5,0.5-3,0.7-4.5,0.7c-3.7,0-6.5-1-8.4-3c-2-2-3-4.8-3-8.4v-23.5h-7v-4.4
			h7v-8.5h5.3v8.5h11.8v4.4h-11.8v23.2c0,2.3,0.6,4.1,1.7,5.3c1.2,1.2,2.8,1.8,5,1.8c1.1,0,2.1-0.2,3.1-0.5c1-0.3,1.9-0.8,2.6-1.5
			L381,224.2z"/>
		<path class="st0" d="M409,171.7h5.3v54.9H409V171.7z"/>
		<path class="st0" d="M481.3,208.7h-32.5c0.3,4,1.9,7.3,4.7,9.8c2.8,2.5,6.4,3.7,10.7,3.7c2.4,0,4.6-0.4,6.7-1.3
			c2-0.9,3.8-2.1,5.2-3.8l3,3.4c-1.7,2.1-3.9,3.7-6.5,4.7c-2.6,1.1-5.4,1.6-8.5,1.6c-4,0-7.5-0.8-10.6-2.6s-5.5-4.1-7.2-7.1
			c-1.7-3-2.6-6.4-2.6-10.2c0-3.8,0.8-7.2,2.5-10.2c1.6-3,3.9-5.3,6.8-7c2.9-1.7,6.1-2.5,9.7-2.5c3.6,0,6.8,0.8,9.7,2.5s5.1,4,6.7,7
			c1.6,3,2.4,6.4,2.4,10.2L481.3,208.7z M453.1,195.4c-2.5,2.4-4,5.5-4.3,9.4h27.6c-0.3-3.8-1.8-7-4.3-9.4c-2.5-2.4-5.7-3.6-9.5-3.6
			C458.8,191.9,455.6,193.1,453.1,195.4z"/>
	</g>
	<g class="st1">
		<path class="st0" d="M595.7,173.7l-22.9,51.8h-5.4l-22.9-51.8h5.9l19.8,45l20-45H595.7z"/>
	</g>
	<g class="st1">
		<path class="st0" d="M620.3,176.9c-0.7-0.7-1.1-1.6-1.1-2.7c0-1,0.4-1.8,1.1-2.6c0.7-0.7,1.6-1.1,2.7-1.1c1.1,0,2,0.4,2.7,1.1
			c0.7,0.7,1.1,1.6,1.1,2.6c0,1.1-0.4,2-1.1,2.7c-0.7,0.7-1.7,1.1-2.7,1.1C621.9,178.1,621,177.7,620.3,176.9z M620.4,186.6h5.3
			v38.9h-5.3V186.6z"/>
		<path class="st0" d="M658.7,170.6h5.3v54.9h-5.3V170.6z"/>
		<path class="st0" d="M697.1,170.6h5.3v54.9h-5.3V170.6z"/>
	</g>
	<g class="st1">
		<path class="st0" d="M760.8,190.1c2.7,2.5,4.1,6.3,4.1,11.3v24.1h-5v-6.1c-1.2,2-2.9,3.6-5.2,4.7c-2.3,1.1-5,1.7-8.2,1.7
			c-4.3,0-7.8-1-10.4-3.1c-2.6-2.1-3.8-4.8-3.8-8.2c0-3.3,1.2-6,3.6-8c2.4-2,6.2-3,11.4-3h12.4v-2.4c0-3.4-0.9-5.9-2.8-7.7
			c-1.9-1.8-4.6-2.6-8.2-2.6c-2.5,0-4.8,0.4-7.1,1.2c-2.3,0.8-4.2,1.9-5.8,3.4l-2.4-3.9c2-1.7,4.3-3,7.1-3.9
			c2.8-0.9,5.7-1.4,8.7-1.4C754.2,186.3,758.1,187.5,760.8,190.1z M754.9,219.7c2.1-1.4,3.7-3.3,4.7-5.9v-6.4h-12.2
			c-6.7,0-10,2.3-10,7c0,2.3,0.9,4.1,2.6,5.4c1.7,1.3,4.1,2,7.2,2C750.3,221.7,752.8,221,754.9,219.7z"/>
	</g>
	<g class="st1">
		<path class="st0" d="M833.8,186.6v34.2c0,6.6-1.6,11.5-4.8,14.7c-3.2,3.2-8.1,4.8-14.6,4.8c-3.6,0-7-0.5-10.2-1.6
			c-3.2-1.1-5.9-2.5-7.9-4.4l2.7-4c1.9,1.7,4.2,3,6.8,3.9c2.7,0.9,5.5,1.4,8.5,1.4c4.9,0,8.6-1.1,10.9-3.4c2.3-2.3,3.5-5.9,3.5-10.7
			v-5c-1.6,2.5-3.8,4.3-6.4,5.6c-2.6,1.3-5.6,1.9-8.8,1.9c-3.6,0-7-0.8-9.9-2.4c-3-1.6-5.3-3.8-7-6.7c-1.7-2.9-2.6-6.2-2.6-9.8
			c0-3.6,0.8-6.9,2.6-9.8c1.7-2.9,4-5.1,7-6.7c3-1.6,6.3-2.4,10-2.4c3.3,0,6.3,0.7,9,2c2.7,1.3,4.8,3.3,6.4,5.8v-7.5H833.8z
			 M821.6,217.5c2.3-1.2,4-2.9,5.3-5.1c1.3-2.2,1.9-4.6,1.9-7.4c0-2.8-0.6-5.2-1.9-7.4c-1.3-2.1-3-3.8-5.3-5
			c-2.2-1.2-4.8-1.8-7.7-1.8c-2.8,0-5.3,0.6-7.6,1.8c-2.2,1.2-4,2.9-5.3,5c-1.3,2.2-1.9,4.6-1.9,7.4c0,2.8,0.6,5.2,1.9,7.4
			c1.3,2.2,3,3.9,5.3,5.1c2.2,1.2,4.8,1.8,7.6,1.8C816.8,219.3,819.3,218.7,821.6,217.5z"/>
		<path class="st0" d="M900.9,207.6h-32.5c0.3,4,1.8,7.3,4.7,9.8c2.8,2.5,6.4,3.7,10.6,3.7c2.4,0,4.6-0.4,6.7-1.3
			c2-0.9,3.8-2.1,5.3-3.8l3,3.4c-1.7,2.1-3.9,3.7-6.5,4.7c-2.6,1.1-5.4,1.6-8.5,1.6c-4,0-7.5-0.8-10.6-2.6c-3.1-1.7-5.5-4.1-7.2-7.1
			c-1.7-3-2.6-6.4-2.6-10.2c0-3.8,0.8-7.2,2.5-10.2c1.7-3,3.9-5.3,6.8-7c2.9-1.7,6.1-2.5,9.7-2.5s6.8,0.8,9.7,2.5
			c2.9,1.7,5.1,4,6.7,7c1.6,3,2.4,6.4,2.4,10.2L900.9,207.6z M872.7,194.4c-2.5,2.4-4,5.5-4.3,9.4H896c-0.3-3.8-1.8-7-4.3-9.4
			c-2.5-2.4-5.7-3.6-9.5-3.6C878.4,190.8,875.2,192,872.7,194.4z"/>
	</g>
</g>
</svg>
