<?xml version="1.0" encoding="utf-8"?>
<!-- Generator: Adobe Illustrator 26.2.1, SVG Export Plug-In . SVG Version: 6.00 Build 0)  -->
<svg version="1.1" id="Group_1_copy" xmlns="http://www.w3.org/2000/svg" xmlns:xlink="http://www.w3.org/1999/xlink" x="0px"
	 y="0px" viewBox="0 0 912 301" style="enable-background:new 0 0 912 301;" xml:space="preserve">
<style type="text/css">
	.st0{fill:#D7C59D;}
	.st1{enable-background:new    ;}
</style>
<g>
	<path class="st0" d="M420,249.9c-34.4,7.3-107.8,5.5-160-7.6c-24.4-6.3-48.1-15.3-70.4-27c-18.5-9.5-37.4-20.8-56.8-28.4
		c-19-7.4-39.4-10.6-59.7-9.1c-16.4,1.1-35.9,6.3-45.9,20.8c-6.4,9.3-4.4,19.3,3.8,26.7c9.2,8.3,22.4,11.9,34.3,13.9
		c34.2,5.6,68.4-1.2,99.7-20.1c8.6-5.6,16.5-12.2,23.5-19.8c9.6-9.6,18.8-19.6,27.6-30c15.2-17.8,29.3-36.6,42.7-55.8
		C269.4,98.5,279.6,83,291,68.4c8.3-10.5,17.7-21.1,29.3-28.2c8.3-5.4,17.5-9,27.2-10.7c6.9-1.1,13.9-1.2,18.5,2.8
		c11.3,9.8-4.2,27-12.6,32.7c-15.7,10.7-35,15-53.2,16.8c-19.3,1.9-38.8,0.1-58-2.7c-64.1-9.4-125-31.3-165-47.9
		c39.4,20.7,112.1,44.3,130.1,48.6c19.3,5,39,8.2,58.9,9.4c19,1.2,38.1-0.2,56.8-4.2c20.1-4.9,35.1-13.9,44.8-29.3
		c3-4.8,5.4-10.9,4.7-16.6c-0.7-4.9-3.9-9-8.5-10.8c-6.4-2.2-13.3-2.5-19.9-0.7c-8.7,1.9-17,5.4-24.6,10.1
		c-12.2,7.6-22,18.6-30.9,29.7c-11.4,14.4-21.5,29.7-32,44.8c-13.3,19.2-27.3,38-42.5,55.8c-8.9,10.5-18.2,20.6-27.9,30.4
		c-7.1,7.3-15.1,13.7-23.8,19c-16.2,9.7-34,16.2-52.7,19c-15.9,2.6-32.1,2.2-47.9-1c-11-2-26.4-7-33-17.3c-2.4-4.4-2.8-9.5-1.2-14.2
		c2.6-6.7,7.9-12,14.7-14.4c17.9-7.3,39.7-7.3,58.6-4c20.3,3.5,38.8,12.5,56.9,22c20.9,11.1,41.5,22.3,63.7,30.5
		c49.4,18.3,103.3,24.4,155.8,21.2C391.9,258.4,406.3,255.2,420,249.9L420,249.9z"/>
	<path class="st0" d="M196.1,205.7c-18.8,17.7-40.2,34-64.7,42.9c-14.3,5.2-29.6,8.6-44.8,5.9c-9-1.6-18.7-6.2-22.3-15.3
		c-1.9-4.9-1.6-10.3,0.9-14.9c3.6-6.6,11.4-9.8,18.4-11.7c42.1-11.1,78.8,15.7,115.2,32c25.1,11.3,51.5,19.7,78.6,24.8
		c48,9,65.8,6.2,77.9,4.7c0.1,0,0.1-0.1,0.1-0.1c0-0.1-0.1-0.1-0.1-0.1c-20.5,0.3-40.9-1.3-61-4.9c-29.4-4.8-58.1-13-85.7-24.4
		c-20.4-8.7-39.5-20.3-60.1-28.7c-19-7.8-40.2-11.4-60.5-6.8c-12.5,2.7-27.7,10.6-26.3,25c1,10.2,7.9,16.6,16.9,19.7
		c13.1,4.5,26.5,3.5,39.8,0.3c22.9-5.6,42.6-17.1,60.8-31.7c20.2-16.1,39.6-38.3,56.4-58c18.6-23.3,52.4-67.1,66.5-91.9
		C285.1,98.1,234.5,169.3,196.1,205.7z"/>
	<g class="st1">
		<path class="st0" d="M280.2,177.2c-0.7-0.7-1.1-1.6-1.1-2.6c0-1,0.4-1.8,1.1-2.5c0.7-0.7,1.6-1.1,2.7-1.1c1,0,1.9,0.3,2.7,1
			c0.7,0.7,1.1,1.5,1.1,2.5c0,1.1-0.4,1.9-1.1,2.7c-0.7,0.7-1.6,1.1-2.7,1.1C281.8,178.3,281,177.9,280.2,177.2z M280.3,186.5h5.1
			v37.7h-5.1V186.5z"/>
	</g>
	<g class="st1">
		<path class="st0" d="M337.3,221.9c-1,0.9-2.1,1.5-3.5,2c-1.4,0.5-2.9,0.7-4.4,0.7c-3.5,0-6.3-1-8.2-2.9c-1.9-1.9-2.9-4.6-2.9-8.1
			v-22.8h-6.7v-4.3h6.7v-8.2h5.1v8.2h11.5v4.3h-11.5v22.5c0,2.2,0.6,4,1.7,5.1c1.1,1.2,2.7,1.8,4.8,1.8c1,0,2.1-0.2,3-0.5
			c1-0.3,1.8-0.8,2.5-1.4L337.3,221.9z"/>
	</g>
	<g class="st1">
		<path class="st0" d="M383.3,221.9c-1,0.9-2.1,1.5-3.5,2c-1.4,0.5-2.9,0.7-4.4,0.7c-3.5,0-6.3-1-8.2-2.9c-1.9-1.9-2.9-4.6-2.9-8.1
			v-22.8h-6.7v-4.3h6.7v-8.2h5.1v8.2h11.5v4.3h-11.5v22.5c0,2.2,0.6,4,1.7,5.1c1.1,1.2,2.7,1.8,4.8,1.8c1,0,2.1-0.2,3-0.5
			c1-0.3,1.8-0.8,2.5-1.4L383.3,221.9z"/>
		<path class="st0" d="M410.5,171h5.1v53.2h-5.1V171z"/>
		<path class="st0" d="M480.5,206.9H449c0.3,3.9,1.8,7.1,4.5,9.5c2.7,2.4,6.2,3.6,10.3,3.6c2.3,0,4.5-0.4,6.4-1.3
			c2-0.8,3.7-2.1,5.1-3.7l2.9,3.3c-1.7,2-3.8,3.5-6.3,4.6c-2.5,1.1-5.3,1.6-8.3,1.6c-3.9,0-7.3-0.8-10.3-2.5c-3-1.6-5.3-3.9-7-6.8
			c-1.7-2.9-2.5-6.2-2.5-9.9c0-3.7,0.8-7,2.4-9.9c1.6-2.9,3.8-5.2,6.6-6.8c2.8-1.6,5.9-2.4,9.4-2.4c3.5,0,6.6,0.8,9.4,2.4
			s4.9,3.9,6.5,6.8c1.6,2.9,2.4,6.2,2.4,9.9L480.5,206.9z M453.2,194.1c-2.5,2.3-3.9,5.3-4.2,9.1h26.7c-0.3-3.7-1.7-6.7-4.2-9.1
			c-2.5-2.3-5.5-3.5-9.2-3.5C458.7,190.6,455.6,191.7,453.2,194.1z"/>
	</g>
	<g class="st1">
		<path class="st0" d="M591.3,173l-22.2,50.1h-5.2L541.7,173h5.7l19.2,43.6l19.3-43.6H591.3z"/>
	</g>
	<g class="st1">
		<path class="st0" d="M615.1,176.1c-0.7-0.7-1.1-1.6-1.1-2.6c0-1,0.4-1.8,1.1-2.5c0.7-0.7,1.6-1.1,2.6-1.1c1.1,0,1.9,0.3,2.7,1
			c0.7,0.7,1.1,1.5,1.1,2.5c0,1.1-0.4,1.9-1.1,2.7c-0.7,0.7-1.6,1.1-2.7,1.1C616.7,177.2,615.8,176.8,615.1,176.1z M615.2,185.4h5.1
			v37.7h-5.1V185.4z"/>
		<path class="st0" d="M652.3,170h5.1v53.2h-5.1V170z"/>
		<path class="st0" d="M689.5,170h5.1v53.2h-5.1V170z"/>
	</g>
	<g class="st1">
		<path class="st0" d="M751.2,188.9c2.6,2.5,3.9,6.1,3.9,10.9v23.4h-4.9v-5.9c-1.1,2-2.8,3.5-5.1,4.6c-2.2,1.1-4.9,1.6-7.9,1.6
			c-4.2,0-7.5-1-10-3c-2.5-2-3.7-4.7-3.7-8c0-3.2,1.2-5.8,3.5-7.7c2.3-2,6-2.9,11.1-2.9h12v-2.3c0-3.2-0.9-5.7-2.7-7.4
			c-1.8-1.7-4.5-2.5-8-2.5c-2.4,0-4.7,0.4-6.9,1.2c-2.2,0.8-4.1,1.9-5.7,3.3l-2.3-3.8c1.9-1.6,4.2-2.9,6.9-3.8
			c2.7-0.9,5.5-1.3,8.5-1.3C744.8,185.2,748.6,186.4,751.2,188.9z M745.5,217.5c2.1-1.3,3.6-3.2,4.6-5.7v-6.2h-11.8
			c-6.4,0-9.7,2.2-9.7,6.7c0,2.2,0.8,3.9,2.5,5.2c1.7,1.3,4,1.9,7,1.9C741,219.5,743.4,218.8,745.5,217.5z"/>
	</g>
	<g class="st1">
		<path class="st0" d="M822,185.4v33.1c0,6.4-1.6,11.1-4.7,14.2c-3.1,3.1-7.8,4.6-14.1,4.6c-3.5,0-6.8-0.5-9.9-1.5
			c-3.1-1-5.7-2.4-7.6-4.3l2.6-3.9c1.8,1.6,4,2.9,6.6,3.8c2.6,0.9,5.3,1.4,8.2,1.4c4.8,0,8.3-1.1,10.5-3.3c2.2-2.2,3.4-5.7,3.4-10.4
			v-4.8c-1.6,2.4-3.6,4.2-6.2,5.4c-2.6,1.2-5.4,1.9-8.5,1.9c-3.5,0-6.7-0.8-9.6-2.3c-2.9-1.6-5.2-3.7-6.8-6.5
			c-1.6-2.8-2.5-6-2.5-9.5c0-3.5,0.8-6.7,2.5-9.5c1.6-2.8,3.9-4.9,6.8-6.4c2.9-1.5,6.1-2.3,9.7-2.3c3.2,0,6.1,0.6,8.7,1.9
			c2.6,1.3,4.7,3.2,6.2,5.6v-7.2H822z M810.1,215.4c2.2-1.2,3.9-2.8,5.1-4.9c1.2-2.1,1.8-4.5,1.8-7.2c0-2.7-0.6-5.1-1.8-7.1
			c-1.2-2.1-2.9-3.7-5.1-4.9c-2.2-1.2-4.6-1.8-7.4-1.8c-2.7,0-5.2,0.6-7.3,1.7c-2.2,1.1-3.9,2.8-5.1,4.9c-1.2,2.1-1.8,4.5-1.8,7.2
			c0,2.7,0.6,5.1,1.8,7.2c1.2,2.1,2.9,3.7,5.1,4.9c2.2,1.2,4.6,1.8,7.3,1.8C805.4,217.2,807.9,216.6,810.1,215.4z"/>
		<path class="st0" d="M886.9,205.9h-31.5c0.3,3.9,1.8,7.1,4.5,9.5c2.7,2.4,6.2,3.6,10.3,3.6c2.3,0,4.5-0.4,6.4-1.3
			c2-0.8,3.7-2.1,5.1-3.7l2.9,3.3c-1.7,2-3.8,3.5-6.3,4.6c-2.5,1.1-5.3,1.6-8.3,1.6c-3.9,0-7.3-0.8-10.3-2.5c-3-1.6-5.3-3.9-7-6.8
			c-1.7-2.9-2.5-6.2-2.5-9.9c0-3.7,0.8-7,2.4-9.9c1.6-2.9,3.8-5.2,6.6-6.8c2.8-1.6,5.9-2.4,9.4-2.4c3.5,0,6.6,0.8,9.4,2.4
			c2.8,1.6,4.9,3.9,6.5,6.8c1.6,2.9,2.4,6.2,2.4,9.9L886.9,205.9z M859.6,193c-2.5,2.3-3.9,5.3-4.2,9.1h26.7
			c-0.3-3.7-1.7-6.7-4.2-9.1c-2.5-2.3-5.5-3.5-9.2-3.5C865.1,189.5,862.1,190.7,859.6,193z"/>
	</g>
</g>
</svg>
