<?xml version="1.0" encoding="utf-8"?>
<!-- Generator: Adobe Illustrator 26.2.1, SVG Export Plug-In . SVG Version: 6.00 Build 0)  -->
<svg version="1.1" id="Group_1_copy" xmlns="http://www.w3.org/2000/svg" xmlns:xlink="http://www.w3.org/1999/xlink" x="0px"
	 y="0px" viewBox="0 0 912 301" style="enable-background:new 0 0 912 301;" xml:space="preserve">
<style type="text/css">
	.st0{fill:#41683C;}
	.st1{enable-background:new    ;}
</style>
<g>
	<path class="st0" d="M418.5,254c-35.8,7.6-112.3,5.7-166.6-7.9c-25.5-6.5-50.1-16-73.4-28.1c-19.3-9.9-39-21.6-59.2-29.6
		c-19.8-7.8-41-11-62.2-9.5c-17.1,1.2-37.4,6.5-47.8,21.6c-6.6,9.6-4.6,20.1,4,27.8c9.6,8.6,23.4,12.4,35.8,14.5
		c35.6,5.9,71.2-1.2,103.9-20.9c9-5.8,17.2-12.7,24.5-20.6c10-10,19.5-20.4,28.7-31.2c15.8-18.6,30.5-38.2,44.5-58.2
		c11-15.7,21.6-31.9,33.4-47c8.6-11,18.5-22,30.5-29.3c8.6-5.6,18.3-9.4,28.4-11.1c7.2-1.1,14.5-1.2,19.3,3
		c11.7,10.2-4.4,28.2-13.1,34.1c-16.3,11.2-36.5,15.7-55.4,17.5c-20.1,2-40.5,0.1-60.4-2.8c-66.8-9.7-130.3-32.6-171.9-49.9
		c41,21.6,116.8,46.1,135.6,50.7c20.1,5.2,40.7,8.5,61.4,9.8c19.8,1.2,39.7-0.2,59.2-4.4c21-5.1,36.5-14.5,46.6-30.5
		c3.1-5,5.7-11.3,4.9-17.3c-0.7-5.1-4.1-9.4-8.9-11.3c-6.7-2.3-13.9-2.6-20.7-0.7c-9.1,2-17.7,5.6-25.6,10.5
		c-12.7,7.9-22.9,19.3-32.2,31c-11.8,15-22.4,31-33.3,46.7c-13.9,20-28.4,39.6-44.2,58.2c-9.3,10.9-19,21.5-29.1,31.6
		c-7.4,7.6-15.7,14.3-24.8,19.8c-16.8,10.1-35.5,16.8-54.9,19.8c-16.6,2.7-33.5,2.3-49.9-1c-11.4-2.1-27.5-7.2-34.3-18
		c-2.5-4.5-2.9-9.9-1.2-14.8c2.7-7,8.2-12.5,15.3-15c18.7-7.6,41.4-7.6,61-4.2c21.1,3.7,40.5,13,59.3,22.9
		c21.7,11.5,43.2,23.2,66.4,31.8c51.5,19.1,107.6,25.4,162.3,22.1C389.3,262.9,404.2,259.5,418.5,254L418.5,254z"/>
	<path class="st0" d="M185.3,207.9c-19.6,18.5-41.8,35.5-67.4,44.7c-14.9,5.4-30.9,8.9-46.6,6.1c-9.3-1.7-19.4-6.4-23.2-15.9
		c-2-5.1-1.7-10.8,0.9-15.6c3.8-6.9,11.9-10.2,19.1-12.2c43.8-11.5,82.1,16.3,120,33.4c26.2,11.8,53.7,20.5,81.9,25.8
		c50,9.4,68.5,6.4,81.1,4.9c0.1,0,0.2-0.1,0.2-0.2c0-0.1-0.1-0.2-0.2-0.2c-21.3,0.3-42.6-1.4-63.6-5.1c-30.6-5-60.6-13.5-89.2-25.4
		c-21.3-9.1-41.2-21.1-62.6-29.9c-19.8-8.1-41.9-11.9-63-7.1c-13,2.8-28.9,11.1-27.4,26c1,10.6,8.2,17.3,17.6,20.5
		c13.7,4.7,27.6,3.7,41.4,0.3c23.9-5.9,44.4-17.8,63.4-33.1c21-16.8,41.2-39.9,58.8-60.4c19.3-24.3,54.6-70,69.3-95.7
		C278,95.9,225.3,170.1,185.3,207.9z"/>
	<g class="st1">
		<path class="st0" d="M272.9,178.3c-0.7-0.7-1.1-1.6-1.1-2.7c0-1,0.4-1.9,1.1-2.6c0.7-0.7,1.7-1.1,2.8-1.1c1.1,0,2,0.4,2.8,1.1
			c0.7,0.7,1.1,1.6,1.1,2.6c0,1.1-0.4,2-1.1,2.8c-0.7,0.7-1.7,1.1-2.8,1.1C274.6,179.4,273.7,179,272.9,178.3z M273,188h5.3v39.3
			H273V188z"/>
	</g>
	<g class="st1">
		<path class="st0" d="M332.4,224.8c-1,0.9-2.2,1.6-3.7,2.1s-3,0.7-4.6,0.7c-3.7,0-6.5-1-8.5-3c-2-2-3-4.8-3-8.4v-23.7h-7V188h7
			v-8.6h5.3v8.6h11.9v4.5h-11.9v23.4c0,2.3,0.6,4.1,1.8,5.3c1.2,1.2,2.8,1.8,5,1.8c1.1,0,2.2-0.2,3.2-0.5c1-0.3,1.9-0.8,2.7-1.5
			L332.4,224.8z"/>
	</g>
	<g class="st1">
		<path class="st0" d="M380.3,224.8c-1,0.9-2.2,1.6-3.7,2.1c-1.5,0.5-3,0.7-4.6,0.7c-3.7,0-6.5-1-8.5-3c-2-2-3-4.8-3-8.4v-23.7h-7
			V188h7v-8.6h5.3v8.6h11.9v4.5h-11.9v23.4c0,2.3,0.6,4.1,1.8,5.3c1.2,1.2,2.8,1.8,5,1.8c1.1,0,2.2-0.2,3.2-0.5
			c1-0.3,1.9-0.8,2.7-1.5L380.3,224.8z"/>
		<path class="st0" d="M408.6,171.9h5.3v55.4h-5.3V171.9z"/>
		<path class="st0" d="M481.5,209.2h-32.8c0.3,4.1,1.9,7.4,4.7,9.9c2.8,2.5,6.4,3.8,10.7,3.8c2.4,0,4.7-0.4,6.7-1.3
			c2-0.9,3.8-2.2,5.3-3.8l3,3.4c-1.7,2.1-3.9,3.7-6.5,4.8c-2.6,1.1-5.5,1.6-8.6,1.6c-4,0-7.6-0.9-10.7-2.6c-3.1-1.7-5.5-4.1-7.3-7.1
			c-1.7-3-2.6-6.5-2.6-10.3c0-3.8,0.8-7.3,2.5-10.3c1.7-3,4-5.4,6.9-7.1s6.2-2.5,9.8-2.5c3.6,0,6.9,0.8,9.8,2.5
			c2.9,1.7,5.1,4,6.8,7.1c1.6,3,2.5,6.5,2.5,10.3L481.5,209.2z M453.1,195.8c-2.6,2.4-4,5.6-4.4,9.4h27.8c-0.3-3.9-1.8-7-4.4-9.4
			c-2.6-2.4-5.8-3.6-9.6-3.6C458.8,192.2,455.6,193.4,453.1,195.8z"/>
	</g>
	<g class="st1">
		<path class="st0" d="M597,173.9l-23.1,52.2h-5.4l-23.1-52.2h6l20,45.4l20.2-45.4H597z"/>
	</g>
	<g class="st1">
		<path class="st0" d="M621.8,177.2c-0.7-0.7-1.1-1.6-1.1-2.7c0-1,0.4-1.9,1.1-2.6c0.7-0.7,1.7-1.1,2.8-1.1c1.1,0,2,0.4,2.8,1.1
			c0.7,0.7,1.1,1.6,1.1,2.6c0,1.1-0.4,2-1.1,2.8c-0.7,0.7-1.7,1.1-2.8,1.1C623.4,178.3,622.5,177.9,621.8,177.2z M621.8,186.9h5.3
			v39.3h-5.3V186.9z"/>
		<path class="st0" d="M660.6,170.8h5.3v55.4h-5.3V170.8z"/>
		<path class="st0" d="M699.3,170.8h5.3v55.4h-5.3V170.8z"/>
	</g>
	<g class="st1">
		<path class="st0" d="M763.6,190.4c2.7,2.6,4.1,6.4,4.1,11.4v24.3h-5.1V220c-1.2,2-2.9,3.6-5.3,4.8c-2.3,1.1-5.1,1.7-8.2,1.7
			c-4.4,0-7.9-1-10.5-3.1c-2.6-2.1-3.9-4.9-3.9-8.3c0-3.3,1.2-6,3.6-8.1c2.4-2,6.3-3.1,11.5-3.1h12.5v-2.4c0-3.4-0.9-6-2.8-7.7
			c-1.9-1.8-4.7-2.7-8.3-2.7c-2.5,0-4.9,0.4-7.2,1.2c-2.3,0.8-4.3,2-5.9,3.4l-2.4-4c2-1.7,4.4-3,7.2-3.9c2.8-0.9,5.7-1.4,8.8-1.4
			C756.9,186.6,760.9,187.9,763.6,190.4z M757.6,220.3c2.1-1.4,3.7-3.3,4.8-5.9v-6.4h-12.3c-6.7,0-10.1,2.3-10.1,7
			c0,2.3,0.9,4.1,2.6,5.4c1.7,1.3,4.2,2,7.3,2C752.9,222.3,755.5,221.6,757.6,220.3z"/>
	</g>
	<g class="st1">
		<path class="st0" d="M837.3,186.9v34.5c0,6.7-1.6,11.6-4.9,14.8c-3.3,3.2-8.2,4.8-14.7,4.8c-3.6,0-7.1-0.5-10.3-1.6
			c-3.3-1.1-5.9-2.6-7.9-4.4l2.7-4c1.9,1.7,4.2,3,6.9,4c2.7,0.9,5.6,1.4,8.5,1.4c5,0,8.6-1.2,11-3.5c2.3-2.3,3.5-5.9,3.5-10.8v-5
			c-1.6,2.5-3.8,4.4-6.5,5.7c-2.7,1.3-5.6,1.9-8.8,1.9c-3.7,0-7-0.8-10-2.4c-3-1.6-5.4-3.9-7.1-6.8c-1.7-2.9-2.6-6.2-2.6-9.9
			s0.9-7,2.6-9.9c1.7-2.9,4.1-5.1,7.1-6.7c3-1.6,6.3-2.4,10.1-2.4c3.3,0,6.3,0.7,9,2c2.7,1.3,4.9,3.3,6.5,5.8v-7.5H837.3z
			 M824.9,218.1c2.3-1.2,4.1-2.9,5.3-5.1c1.3-2.2,1.9-4.7,1.9-7.5s-0.6-5.3-1.9-7.4c-1.3-2.2-3-3.9-5.3-5.1
			c-2.3-1.2-4.8-1.8-7.7-1.8c-2.8,0-5.4,0.6-7.7,1.8c-2.3,1.2-4,2.9-5.3,5.1c-1.3,2.2-1.9,4.7-1.9,7.5s0.6,5.3,1.9,7.5
			c1.3,2.2,3,3.9,5.3,5.1c2.3,1.2,4.8,1.8,7.7,1.8C820,219.9,822.6,219.3,824.9,218.1z"/>
		<path class="st0" d="M905,208.1h-32.8c0.3,4.1,1.9,7.4,4.7,9.9c2.8,2.5,6.4,3.8,10.7,3.8c2.4,0,4.7-0.4,6.7-1.3
			c2-0.9,3.8-2.2,5.3-3.8l3,3.4c-1.7,2.1-3.9,3.7-6.5,4.8c-2.6,1.1-5.5,1.6-8.6,1.6c-4,0-7.6-0.9-10.7-2.6c-3.1-1.7-5.5-4.1-7.3-7.1
			c-1.7-3-2.6-6.5-2.6-10.3c0-3.8,0.8-7.3,2.5-10.3c1.7-3,4-5.4,6.9-7.1c2.9-1.7,6.2-2.5,9.8-2.5s6.9,0.8,9.8,2.5
			c2.9,1.7,5.1,4,6.8,7.1c1.6,3,2.5,6.5,2.5,10.3L905,208.1z M876.5,194.7c-2.6,2.4-4,5.6-4.4,9.4H900c-0.3-3.9-1.8-7-4.4-9.4
			c-2.6-2.4-5.8-3.6-9.6-3.6C882.2,191.1,879,192.3,876.5,194.7z"/>
	</g>
</g>
</svg>
