<?xml version="1.0" encoding="utf-8"?>
<!-- Generator: Adobe Illustrator 26.2.1, SVG Export Plug-In . SVG Version: 6.00 Build 0)  -->
<svg version="1.1" id="Layer_2_00000000907215552497217010000009228540333155729324_"
	 xmlns="http://www.w3.org/2000/svg" xmlns:xlink="http://www.w3.org/1999/xlink" x="0px" y="0px" viewBox="0 0 1000 1000"
	 style="enable-background:new 0 0 1000 1000;" xml:space="preserve">
<style type="text/css">
	.st0{fill:none;stroke:#231F20;stroke-width:15;stroke-miterlimit:10;}
</style>
<path class="st0" d="M510.5,440.6c4.8,3.6,9.2,7.7,13.5,12c18.6,18.6,43.2,28.8,69.7,28.8c17.1,0,33.9-4.4,48.7-12.9l58.1-33.1
	c13.4-7.7,27.4-14.3,41.6-20.2c-17.1-7.8-36-10.9-54.7-9l-123.2,12.9C544.5,421.1,526.1,428.6,510.5,440.6z"/>
<path class="st0" d="M885.2,540.8c-4.6,6.4-8.6,13.2-12.1,20.3l-8.6,17.6c28.3,11.7,48.2,39.7,48.2,72.2c0,43.1-35,78.2-78.2,78.2
	c-40.5,0-73.9-30.9-77.8-70.3h-43.1c4,63.3,56.7,113.3,120.9,113.3c67,0,121.1-54.3,121.1-121.1C955.7,602,926.7,560.1,885.2,540.8z
	"/>
<path class="st0" d="M790.6,655.7c2.3,22.1,21.1,39.3,43.8,39.3c24.4,0,44-19.8,44-44c0-19.1-12.1-35.4-29.2-41.4
	C837,632.4,815.5,649.2,790.6,655.7z"/>
<path class="st0" d="M382.5,313.2c-4.6-2.1-9.1-4.2-13.7-6.3c5.2,42.5,32.2,79.7,71.8,97.7l11.9,5.3c-1.6-15.8-6.4-31.1-14.1-45.3
	C425.9,342.1,406.2,324,382.5,313.2z"/>
<path class="st0" d="M69.1,601.6c9.9-26.8,27.5-50,50.3-66.6L54,514.9l-7.6,26.7C39.9,564.4,49.2,588.7,69.1,601.6z"/>
<path class="st0" d="M271.9,550.7l19.9-12.8c30.1,23.4,50.5,58.7,54.5,98.7c0.5,0,1,0,1.6,0H529c-8.5-5.2-16.7-10.6-24.5-16.3
	s-15.2-11.7-22.4-18.1c-3.3-2.9-6.4-5.7-9.4-8.6c-28.3-27.2-50.4-59.1-65.8-95c-22-51.1-24-94.8-23.8-109
	c-23.7-26.3-37.5-60.8-37.5-97.6c0-5-1.4-9.8-4-13.9l2.7-4.4c9.2-14.9,25.1-23.7,42.6-23.7h34.4c6.1,0,11.1-4.9,11.1-11.1
	c0-6.1-5-11.1-11.1-11.1h-34.4c-25.1,0-48.1,12.8-61.4,34.3l-2.7,4.4c-9-1-18.5,2.9-24.2,10.7l-20.5,27.4c-0.1,0.1-0.3,0.4-0.4,0.5
	c-22.8,30.4-57.3,49.6-95,53.7l-90.7,9.6c-9.5,1-18.2,5.7-24.4,13.2l-13.5,16.8c-6.3,7.8-9.1,17.7-7.8,27.7l8.9,65.9l84.3,26.1
	c7.2-5.2,15-9.6,23.3-13l18.9,26.4c-56.5,10.3-99.3,59.8-99.3,119.2c0,67,54.3,121.1,121.1,121.1s121.1-54.3,121.1-121.1
	C324.9,609.3,303.8,572.4,271.9,550.7z M137.6,408.4l-12.5,21.8c-1.6,2.6-4.2,4.4-7,4.9l-35.4,6.3c-6.3,1-12-3.8-12-10v-13
	c0-2.7,1.2-5.5,3.1-7.4l12.5-11.9c1.7-1.6,3.8-2.6,6.1-2.7l35.4-3.1C136,392.4,141.8,401.3,137.6,408.4z M247.8,505.5
	c9,3.8,17.5,8.7,25.1,14.6l-27,17.2c-1.8-0.7-3.5-1.3-5.3-1.8L247.8,505.5z M210.3,497.1c4.6,0.3,9,0.7,13.3,1.4l-7.6,31.8
	c-1.4-0.1-3-0.3-4.6-0.4l-22.7-31.8C195.8,497.1,203,496.8,210.3,497.1z M203.6,729.1c-43.1,0-78.2-35-78.2-78.2s35-78.2,78.2-78.2
	c0.7,0,1.4,0,2.1,0l-8.2,34.5c-21.5,3-37.9,21.4-37.9,43.6c0,24.4,19.7,44,44,44s44-19.7,44-44c0-17.6-10.3-32.7-25.1-39.9l8.1-33.6
	c30,10.9,51.3,39.7,51.3,73.5C281.9,694,246.8,729.1,203.6,729.1z"/>
<path class="st0" d="M511.2,597.8c21.2-1.2,56-4.2,92.2-11.5c51.8-10.4,117.2-31.8,134.8-74.8c11.5-28,24-57.3,35.8-84.3
	c-21.8,6.9-42.7,16-62.7,27.4l-58.1,33.1c-47.2,27-106.6,19-145-19.4l0,0c-10.3-10.3-22.3-18.6-35.6-24.6L431.3,425
	c-8.9-4-17.1-8.9-24.8-14.3c2.1,19.4,7.4,48.6,21.2,80.2C446.3,533.4,474.2,569.2,511.2,597.8z"/>
<path class="st0" d="M920.7,479.8l24-13.5c5.3-3,7.2-9.8,4.2-15.1c-18.4-31.7-54.7-48.5-90.8-41.8l-45.5,8.3
	c-3.8,0.7-7.4,1.4-11.1,2.2c-13.8,31.1-29,66.4-42.7,100c-17.1,41.8-68,71.5-151.2,88.2c-24.4,4.8-47.8,7.8-67.1,9.8
	c11.2,6.8,23.2,13.2,35.7,18.9h190.7c27.2,0,52.1-15.5,64.1-39.9l22.3-45.3C868,521.2,891.6,496.4,920.7,479.8z"/>
</svg>
