<svg id="Layer_1" data-name="Layer 1" xmlns="http://www.w3.org/2000/svg" viewBox="0 0 489.42 204.26"><defs><style>.cls-1{fill:none;stroke:#000;stroke-miterlimit:10;stroke-width:5px;}</style></defs><path d="M404,142.67H319.79l-.36-1.23c1.35-.48,2.69-1.38,4-1.39q38.93-.12,77.84,0c1.05,0,2.11.87,3.16,1.33Z"/><path d="M217.24,141.49c1.23-.5,2.46-1.43,3.69-1.43,23.94-.08,47.88-.05,71.83,0,.49,0,1,.26,1.75,1.4-1.39.52-2.77,1.47-4.16,1.48-23.8.08-47.6,0-71.41,0a5.24,5.24,0,0,1-1.2-.29Z"/><path d="M376.62,158.07H292.4c-.12-.41-.23-.82-.35-1.23,1.34-.48,2.69-1.38,4-1.38q38.93-.14,77.83,0c1.06,0,2.11.86,3.17,1.32Z"/><path d="M315.93,174c-8,0-16.07.06-24.11-.07-1.3,0-2.6-.86-3.9-1.32,1.23-.59,2.45-1.69,3.68-1.7q24.73-.16,49.49,0c1.09,0,2.17,1,3.25,1.55-1.15.51-2.29,1.44-3.45,1.46-8.32.12-16.64.06-25,.06Z"/><path d="M45.55,142.15c1.86-1,2.76-1.93,3.66-1.93q30-.12,60,0c.84,0,1.67,1,2.5,1.48-.86.48-1.72,1.36-2.58,1.37q-30,.1-60,0A20.37,20.37,0,0,1,45.55,142.15Z"/><path d="M273,156.94c-1,.54-2,1.54-2.95,1.55q-21.08.15-42.16,0c-.89,0-1.78-.85-2.66-1.31.59-.58,1.18-1.65,1.78-1.66,15.14-.09,30.29-.07,45.43-.07Z"/><path d="M116.81,156.58c-1.68.91-2.68,1.9-3.68,1.91q-19.86.15-39.72,0c-.88,0-1.76-.87-2.64-1.34.74-.57,1.48-1.65,2.23-1.65,13.94,0,27.88,0,41.83.08C115.08,155.59,115.33,155.83,116.81,156.58Z"/><path d="M427.53,130.08c-5.48,0-11,.07-16.44-.06-1,0-2-.87-3.06-1.34,1.07-.57,2.13-1.64,3.2-1.66q16.44-.18,32.9,0c1,0,2,.9,3,1.38-1.06.56-2.1,1.56-3.18,1.6C438.5,130.16,433,130.07,427.53,130.08Z"/><path d="M7.86,121.73H41l.51,1.26c-1,.53-2.07,1.51-3.11,1.53q-14.11.18-28.25,0c-1,0-2-1-3.07-1.52Z"/><path d="M417.73,158.58c-4.52,0-9,.11-13.55-.08-1.1,0-2.17-1.05-3.25-1.61,1-.49,2-1.39,3-1.4q14-.17,27.94,0c.94,0,1.87,1,2.8,1.54-1,.51-1.95,1.42-2.95,1.46-4.66.15-9.32.07-14,.07Z"/><path d="M475.28,109.5c-1,.55-2,1.48-3,1.57-12.33,1.07-19.52.22-20.7-2.67h22.88Z"/><path d="M146.05,155.43c2.95,0,5.92-.11,8.86.06.89.06,1.72.89,2.58,1.36-.79.57-1.56,1.61-2.36,1.63q-9.28.21-18.58,0c-.88,0-1.74-.93-2.6-1.43.93-.54,1.84-1.49,2.81-1.55C139.85,155.31,143,155.43,146.05,155.43Z"/><path d="M215.19,156.58c-1.68.91-2.67,1.9-3.68,1.91q-19.86.15-39.72,0c-.88,0-1.76-.87-2.64-1.34.75-.57,1.49-1.65,2.23-1.65,13.94,0,27.89,0,41.83.08C213.46,155.59,213.71,155.83,215.19,156.58Z"/><path d="M244.43,155.43c3,0,5.92-.11,8.87.06.88.06,1.71.89,2.57,1.36-.79.57-1.56,1.61-2.36,1.63q-9.28.21-18.58,0c-.88,0-1.73-.93-2.6-1.43.94-.54,1.85-1.49,2.81-1.55C238.23,155.31,241.33,155.43,244.43,155.43Z"/><path d="M186.6,142.74H161l-.37-1.15c1-.48,2-1.29,3-1.39C175,139.16,184.57,140,186.6,142.74Z"/><path d="M121.4,142.56c2.57-3.3,23.3-3.31,26,0Z"/><path d="M181.16,169.81c1.23-.5,2.46-1.43,3.69-1.43,23.94-.08,47.88,0,71.83,0,.49,0,1,.26,1.75,1.4-1.39.51-2.77,1.47-4.16,1.48-23.8.08-47.6,0-71.41,0a5.24,5.24,0,0,1-1.2-.29Z"/><path d="M9.47,170.47c1.87-1,2.76-1.93,3.66-1.93q30-.12,60,0c.84,0,1.67,1,2.5,1.48-.86.48-1.72,1.36-2.58,1.36q-30,.12-60,0A20.17,20.17,0,0,1,9.47,170.47Z"/><path d="M236.87,185.25c-1,.55-2,1.55-2.94,1.56q-21.09.15-42.17,0c-.89,0-1.78-.85-2.66-1.31.59-.58,1.18-1.66,1.78-1.66,15.14-.09,30.29-.07,45.43-.07Z"/><path d="M80.73,184.9c-1.68.91-2.67,1.9-3.68,1.91q-19.86.15-39.72,0c-.88,0-1.76-.87-2.64-1.34.75-.57,1.48-1.65,2.23-1.65,13.94-.06,27.89,0,41.83.08C79,183.91,79.25,184.15,80.73,184.9Z"/><path d="M110,183.75c3,0,5.92-.11,8.86.06.89.06,1.72.89,2.58,1.36-.79.57-1.56,1.61-2.36,1.63q-9.28.21-18.58,0c-.88,0-1.73-.93-2.6-1.43.94-.54,1.85-1.49,2.81-1.55C103.77,183.63,106.87,183.75,110,183.75Z"/><path d="M179.11,184.9c-1.68.91-2.67,1.9-3.68,1.91q-19.86.15-39.72,0c-.88,0-1.76-.87-2.63-1.34.74-.57,1.48-1.65,2.22-1.65,13.94-.06,27.89,0,41.83.08C177.38,183.91,177.63,184.15,179.11,184.9Z"/><path d="M208.35,183.75c3,0,5.92-.11,8.87.06.88.06,1.72.89,2.57,1.36-.78.57-1.56,1.61-2.36,1.63q-9.28.21-18.58,0c-.87,0-1.73-.93-2.6-1.43.94-.54,1.85-1.49,2.82-1.55C202.15,183.63,205.25,183.75,208.35,183.75Z"/><path d="M150.52,171.06H124.93l-.37-1.15c1-.48,2-1.29,3-1.39C138.91,167.48,148.49,168.32,150.52,171.06Z"/><path d="M85.32,170.88c2.57-3.3,23.3-3.31,26,0Z"/><path d="M415.79,185.43c1.23-.5,2.46-1.42,3.69-1.43q35.91-.12,71.83,0c.49,0,1,.25,1.75,1.4-1.38.51-2.77,1.47-4.16,1.47q-35.7.12-71.4,0a5.24,5.24,0,0,1-1.2-.29Z"/><path d="M244.1,186.09c1.87-1,2.76-1.92,3.66-1.93q30-.12,60,0c.83,0,1.66,1,2.49,1.49-.86.47-1.72,1.36-2.58,1.36q-30,.11-60,0A19.63,19.63,0,0,1,244.1,186.09Z"/><path d="M385.15,186.69H359.56l-.37-1.15c1-.48,2-1.3,3-1.39C373.55,183.1,383.13,184,385.15,186.69Z"/><path d="M320,186.51c2.56-3.3,23.29-3.32,26,0Z"/><path class="cls-1" d="M34.37,34.71c-7.95.45-15.9,1-23.86,1.28-5.41.16-6.7,3.09-6.41,7.81.91,15,1.71,29.93,2.55,44.9.2,3.6.7,7,5.3,7.37s8.88-.69,10.39-5.85c2.24-7.63,4.5-15.28,6.21-23,1.29-5.88,4.53-8.19,10.34-8.25,6.63-.08,13.25-.82,19.89-1C64,57.77,66.3,55.5,66,50.13,64.82,30.73,66.24,33,48.57,33.9c-4.74.23-9.47.52-14.2.79Z"/><path class="cls-1" d="M7.27,29.2l53.34-3c-3-5.62-6.86-8.53-12.36-8.37q-14.78.42-29.53,1.65C13.28,20,9.5,23.09,7.27,29.2Z"/><path class="cls-1" d="M480.35,17.75c-6.45-7.12-17-7.39-24.68-.85a77.79,77.79,0,0,1-10.52,7.77,160.46,160.46,0,0,1-49.22,18.62,48.52,48.52,0,0,0-8.11,2.38h0S373.26,48.45,361.47,50l-13.78.77h0c-21.27,1.18-42.31,2.36-63.31,3.63l0-.09-33.46,1.86-3.35.19-6,.33h0Q145.16,62.05,48.7,67.47c-9.9.56-17,8.34-16.56,17.8.44,10,8.11,16.9,18.72,16.32q87.33-4.75,174.64-9.79h0l30.59-1.66a1.41,1.41,0,0,0,.29,0l19.82-1.09h0q27.64-1.53,55.3-3.17h0L367,84l.76,0,.8,0h0c1.85-.12,3.66-.3,5.44-.59,25.81-4.27,50.9-11.18,74.78-22,10.95-5,21.4-10.84,30.19-19.2C486.14,35.25,486.65,24.7,480.35,17.75Z"/><path class="cls-1" d="M470.17,59.18c-2.34,1.4-4.34,2.71-6.44,3.82-32.79,17.26-67.45,28.06-104.55,30.4l-1.75.09c-.87,0-1.82,0-2.66.15l-31.39,1.68-.11.12q-35.16,1.92-70.3,3.91l-.37,0L220,101.2h0q-80.3,4.47-160.6,8.88c-2.93.16-3.5,1.5-3.42,4,.29,8.5,7.08,14.24,16.94,13.71q68.9-3.75,137.77-7.71l0,.06,43.61-2.46h0q24.48-1.35,49-2.73l0,0,51.56-2.53.84,0,1.52-.07v0a235.63,235.63,0,0,0,83.11-19.66c9.82-4.34,19.22-9.5,27-17.08C472.17,70.78,473.25,64.79,470.17,59.18Z"/></svg>