<?xml version="1.0" encoding="utf-8"?>
<!-- Generator: Adobe Illustrator 24.2.0, SVG Export Plug-In . SVG Version: 6.00 Build 0)  -->
<svg version="1.1" id="Layer_1" xmlns="http://www.w3.org/2000/svg" xmlns:xlink="http://www.w3.org/1999/xlink" x="0px" y="0px"
	 viewBox="0 0 347.04 347.04" style="enable-background:new 0 0 347.04 347.04;" xml:space="preserve">
<style type="text/css">
	.st0{fill:#638C3D;}
	.st1{enable-background:new    ;}
	.st2{fill:#D9C69E;}
	.st3{fill:#1F4F2F;}
	.st4{fill:#496841;}
	.st5{fill:#FCFADF;}
	.st6{fill:#231F20;}
	.st7{fill:#FFFFFF;}
</style>
<g>
	<g>
		<path class="st0" d="M321.93,248.29c-26.05,5.46-81.64,4.18-121.19-5.77c-18.49-4.76-36.37-11.62-53.31-20.44
			c-14.04-7.17-28.35-15.71-43.04-21.52c-14.35-5.64-29.78-7.99-45.16-6.88c-12.43,0.88-27.17,4.74-34.74,15.74
			c-4.84,7.01-3.31,14.61,2.91,20.22c6.96,6.27,16.98,9.03,26,10.52c25.81,4.25,51.81-0.89,75.56-15.21
			c6.64-3.99,12.3-9.43,17.81-14.98c7.23-7.3,14.18-14.86,20.87-22.69c11.53-13.51,22.14-27.76,32.33-42.3
			c7.97-11.44,15.69-23.18,24.32-34.18c6.26-7.97,13.43-15.94,22.21-21.25c7.51-4.54,13.8-7.03,20.66-8.09
			c5.21-0.81,10.55-0.88,14.01,2.15c8.53,7.47-3.23,20.48-9.55,24.81c-11.86,8.13-26.49,11.38-40.25,12.74
			c-14.61,1.43-29.44,0.11-43.94-2.02c-48.62-7.16-94.83-23.78-125.2-36.36c29.9,15.7,85.02,33.53,98.66,36.85
			c14.62,3.79,29.56,6.18,44.63,7.15c13.68,0.7,29.62,0,43.01-3.21c15.26-3.67,26.57-10.63,33.91-22.29
			c2.24-3.59,4.12-8.25,3.53-12.59c-0.55-3.65-3.01-6.73-6.44-8.09c-4.76-1.97-10.18-1.58-15.09-0.53
			c-6.59,1.47-12.88,4.06-18.6,7.66c-9.23,5.77-16.71,14.05-23.41,22.58c-8.61,10.92-16.29,22.58-24.24,33.93
			c-10.24,14.48-20.71,28.73-32.2,42.31c-6.75,7.97-13.8,15.63-21.15,22.98c-5.36,5.52-11.41,10.34-18,14.32
			c-12.23,7.31-25.77,12.19-39.85,14.36c-12.05,1.93-24.34,1.69-36.3-0.72c-8.32-1.5-19.99-5.31-24.97-13.11
			c-1.8-3.3-2.13-7.21-0.9-10.76c1.95-5.08,6.01-9.07,11.13-10.92c13.59-5.62,30.09-5.55,44.38-3.07
			c15.37,2.66,29.42,9.46,43.09,16.71c15.79,8.37,31.47,16.9,48.27,23.13c37.43,13.88,78.28,18.6,118.01,16.02
			c11.06-0.8,21.93-3.23,32.28-7.2L321.93,248.29z"/>
		<path class="st0" d="M152.37,214.76c-14.21,13.44-30.43,25.8-48.99,32.53c-10.81,3.99-22.44,6.51-33.9,4.45
			c-6.79-1.22-14.15-4.66-16.87-11.56c-1.47-3.69-1.24-7.84,0.65-11.33c2.76-4.99,8.65-7.45,13.91-8.83
			c31.88-8.41,59.71,11.88,87.23,24.27c19.04,8.59,39.03,14.89,59.55,18.77c36.33,6.84,49.83,4.68,58.99,3.55
			c0.07,0,0.12-0.05,0.12-0.12c0-0.07-0.05-0.12-0.12-0.12c-15.5,0.21-30.99-1.06-46.25-3.77c-22.26-3.65-44.03-9.85-64.88-18.49
			c-15.49-6.64-29.95-15.36-45.51-21.75c-14.37-5.92-30.47-8.62-45.84-5.15c-9.39,2.11-20.92,8.16-19.93,19.01
			c0.76,7.74,5.98,12.57,12.82,14.93c9.94,3.45,20.1,2.66,30.13,0.23c17.35-4.25,32.28-12.89,46.08-23.98
			c15.29-12.3,30.01-29.12,42.75-44.02c14.05-17.64,39.68-50.86,50.41-69.59C219.85,133.28,181.44,187.25,152.37,214.76z"/>
	</g>
</g>
</svg>
