<?xml version="1.0" encoding="utf-8"?>
<!-- Generator: Adobe Illustrator 26.2.1, SVG Export Plug-In . SVG Version: 6.00 Build 0)  -->
<svg version="1.1" id="Layer_1" xmlns="http://www.w3.org/2000/svg" xmlns:xlink="http://www.w3.org/1999/xlink" x="0px" y="0px"
	 viewBox="0 0 912 912" style="enable-background:new 0 0 912 912;" xml:space="preserve">
<style type="text/css">
	.st0{fill:#D9C79E;}
	.st1{enable-background:new    ;}
</style>
<g id="Layer_1-2">
	<path class="st0" d="M758,532.6c-52.3,10.9-164.2,8.3-243.5-11.5c-37.1-9.6-73.2-23.2-107.1-41.1c-28.3-14.4-56.9-31.5-86.5-43.3
		c-28.8-11.2-59.8-16-90.8-13.9c-25.1,1.9-54.7,9.6-69.9,31.8c-9.6,14.1-6.7,29.4,5.9,40.6c13.9,12.5,34.2,18.2,52.3,21.1
		c51.8,8.5,104.1-1.9,151.9-30.4c13.3-8,24.8-19,35.8-30.2c14.4-14.7,28.6-29.9,41.9-45.7c23.2-27.2,44.6-55.8,64.9-84.9
		c16-23,31.5-46.5,48.9-68.6c12.5-16,27-32,44.6-42.7c15-9.1,27.8-14.1,41.6-16.3c10.4-1.6,21.1-1.9,28.3,4.3
		c17.1,15-6.4,41.1-19.2,49.9c-23.8,16.3-53.1,23-80.9,25.6c-29.4,2.9-59.3,0.3-88.4-4c-97.7-14.4-190.6-47.8-251.5-73.2
		c60.1,31.5,170.9,67.3,198.4,74c29.4,7.7,59.5,12.5,89.7,14.4c27.5,1.3,59.5,0,86.5-6.4c30.7-7.5,53.4-21.4,68.1-44.9
		c4.5-7.2,8.3-16.6,7.2-25.4c-1.1-7.2-6.1-13.6-13.1-16.3c-9.6-4-20.6-3.2-30.4-1.1c-13.3,2.9-25.9,8.3-37.4,15.5
		c-18.4,11.5-33.6,28.3-47,45.4c-17.4,21.9-32.8,45.4-48.6,68.1c-20.6,29.1-41.6,57.7-64.6,84.9c-13.6,16-27.8,31.5-42.4,46.2
		c-10.7,11.2-23,20.8-36.3,28.8c-24.6,14.7-51.8,24.6-80.1,28.8c-24.3,4-48.9,3.5-72.9-1.3c-16.8-2.9-40.3-10.7-50.2-26.4
		c-3.7-6.7-4.3-14.4-1.9-21.6c4-10.1,12-18.2,22.4-21.9c27.2-11.2,60.6-11.2,89.2-6.1c31,5.3,59.3,19,86.5,33.6
		c31.8,16.8,63.3,33.9,96.9,46.5c75.3,27.8,157.3,37.4,237.1,32.3C715.2,545.4,737.1,540.6,758,532.6L758,532.6z"/>
	<path class="st0" d="M417,465.1c-28.6,27-61.1,51.8-98.5,65.4c-21.6,8-45.1,13.1-68.1,9.1c-13.6-2.4-28.6-9.3-33.9-23.2
		c-2.9-7.5-2.4-15.8,1.3-22.7c5.6-10.1,17.4-15,28-17.6c64.1-16.8,120.1,23.8,175.4,48.9c38.2,17.4,78.5,29.9,119.6,37.6
		c73.2,13.6,100.1,9.3,118.5,7.2c0,0,0.3,0,0.3-0.3c0,0,0-0.3-0.3-0.3c-31.2,0.5-62.2-2.1-92.9-7.5c-44.9-7.2-88.4-19.8-130.3-37.1
		c-31.2-13.3-60.3-31-91.6-43.8c-28.8-12-61.1-17.4-92.1-10.4c-19,4.3-42.2,16.3-40,38.2c1.6,15.5,12,25.4,25.9,29.9
		c20,6.9,40.3,5.3,60.6,0.5c35-8.5,64.9-25.9,92.6-48.3c30.7-24.8,60.3-58.5,86-88.4c28.3-35.5,79.8-102.3,101.2-139.9
		C552.6,301.4,475.5,409.8,417,465.1z"/>
	<g class="st1">
		<path class="st0" d="M147.6,701.6v-76.9h15.5v63.5h38.7v13.1h-54.2V701.6z"/>
		<path class="st0" d="M251.2,662.6l-13.3-2.4c1.6-5.3,4-9.3,7.7-12c3.7-2.7,9.1-4,16.6-4c6.7,0,11.5,0.8,14.7,2.4s5.6,3.5,6.9,5.9
			s1.9,6.9,1.9,13.3l-0.3,17.4c0,4.8,0.3,8.5,0.8,10.9c0.5,2.4,1.3,4.8,2.7,7.5h-14.7c-0.3-1.1-0.8-2.4-1.3-4.3
			c-0.3-0.8-0.5-1.3-0.5-1.9c-2.4,2.4-5.3,4.3-8,5.6c-2.9,1.3-5.9,1.9-9.3,1.9c-5.9,0-10.4-1.6-13.6-4.8c-3.2-3.2-5.1-7.2-5.1-11.7
			c0-3.2,0.8-5.9,2.1-8.5c1.6-2.4,3.7-4.3,6.4-5.6c2.7-1.3,6.7-2.4,11.7-3.5c6.9-1.3,11.7-2.4,14.4-3.7v-1.6c0-2.9-0.8-4.8-2.1-6.1
			s-4-1.9-8-1.9c-2.7,0-4.8,0.5-6.1,1.6S252.3,660,251.2,662.6z M270.2,638.6h-9.3l-14.7-15.8h16.6L270.2,638.6z M271,674.7
			c-1.9,0.5-4.8,1.3-9.1,2.1c-4.3,0.8-6.7,1.9-8,2.7c-1.9,1.3-2.9,3.2-2.9,5.3c0,2.1,0.8,3.7,2.4,5.3c1.6,1.6,3.5,2.1,5.9,2.1
			c2.7,0,5.3-0.8,7.7-2.7c1.9-1.3,2.9-2.9,3.5-4.8c0.3-1.3,0.5-3.7,0.5-7.2V674.7z"/>
		<path class="st0" d="M378.3,701.6h-15v-28.8c0-6.1-0.3-9.9-1.1-11.7c-0.5-1.9-1.6-3.2-3.2-4.3c-1.3-1.1-3.2-1.6-5.1-1.6
			c-2.7,0-4.8,0.8-6.9,2.1s-3.5,3.2-4.3,5.6c-0.8,2.4-1.1,6.7-1.1,12.8v25.4h-15V645h13.9v8.3c4.8-6.4,10.9-9.6,18.4-9.6
			c3.2,0,6.1,0.5,9.1,1.9s4.8,2.7,6.1,4.5c1.3,1.9,2.4,4,2.9,6.1c0.5,2.1,0.8,5.6,0.8,9.9v35.5H378.3z"/>
		<path class="st0" d="M418.9,705.1l16.8,2.1c0.3,1.9,0.8,3.2,1.9,4c1.3,1.1,3.7,1.6,6.7,1.6c3.7,0,6.7-0.5,8.8-1.9
			c1.3-0.8,2.4-2.1,2.9-3.7c0.5-1.3,0.8-3.5,0.8-6.7v-8.3c-4.5,6.1-10.1,9.1-16.8,9.1c-7.5,0-13.6-3.2-17.9-9.6
			c-3.5-5.1-5.1-11.2-5.1-18.7c0-9.3,2.1-16.6,6.7-21.6c4.5-5.1,10.1-7.5,16.8-7.5c6.9,0,12.5,2.9,17.1,9.1v-7.7h13.9v50.2
			c0,6.7-0.5,11.5-1.6,15c-1.1,3.2-2.7,5.9-4.5,7.7s-4.5,3.2-8,4.3c-3.2,1.1-7.5,1.6-12.5,1.6c-9.6,0-16.3-1.6-20.3-4.8
			c-4-3.2-5.9-7.5-5.9-12.3C418.9,706.4,418.9,705.9,418.9,705.1z M432.2,672.3c0,5.9,1.1,10.4,3.5,13.1c2.4,2.7,5.1,4.3,8.5,4.3
			c3.7,0,6.7-1.3,9.1-4.3c2.4-2.9,3.7-6.9,3.7-12.5c0-5.9-1.1-10.1-3.5-12.8c-2.4-2.9-5.3-4.3-9.1-4.3c-3.5,0-6.4,1.3-8.8,4.3
			C433.3,662.9,432.2,666.6,432.2,672.3z"/>
	</g>
	<g class="st1">
		<path class="st0" d="M528.9,701.6v-77.4h15.2l31.8,51.5v-51.5h14.4v77.4h-15.8l-31.2-50.5v50.5H528.9z"/>
	</g>
	<g class="st1">
		<path class="st0" d="M642.4,624.2v28.3c4.8-5.6,10.4-8.3,17.1-8.3c3.5,0,6.4,0.5,9.3,1.9c2.7,1.3,4.8,2.9,6.1,4.8s2.4,4.3,2.9,6.4
			c0.5,2.4,0.8,6.1,0.8,11.2v32.8h-15v-29.6c0-5.9-0.3-9.6-0.8-11.2c-0.5-1.6-1.6-2.9-2.9-3.7s-3.2-1.3-5.3-1.3
			c-2.4,0-4.5,0.5-6.7,1.9c-1.9,1.1-3.5,2.9-4.3,5.3s-1.3,5.9-1.3,10.7v28h-15v-77.4h15V624.2z"/>
		<path class="st0" d="M717.4,672.8c0-4.8,1.3-9.6,3.7-14.4c2.4-4.8,5.9-8,10.4-10.7s9.3-3.7,15-3.7c8.5,0,15.5,2.7,20.8,8.3
			c5.3,5.6,8,12.5,8,20.8c0,8.5-2.7,15.5-8.3,21.1s-12.3,8.3-20.6,8.3c-5.1,0-10.1-1.1-14.7-3.5c-4.5-2.4-8.3-5.6-10.7-10.1
			C718.4,684.5,717.4,679.2,717.4,672.8z M732.6,673.6c0,5.6,1.3,9.9,4,12.8s5.9,4.5,9.9,4.5c3.7,0,7.2-1.6,9.6-4.5
			c2.4-2.9,4-7.2,4-12.8s-1.3-9.6-4-12.5c-2.7-2.9-5.9-4.5-9.6-4.5s-7.2,1.6-9.9,4.5C733.7,663.7,732.6,668,732.6,673.6z M747,632.2
			c1.9-0.5,2.9-1.3,2.9-2.4c0-0.8-0.5-1.6-1.6-2.1c-1.6-0.8-3.7-1.3-6.9-1.3c-1.1,0-2.7,0-5.1,0.3l-0.5-5.3c1.3-0.3,4-0.5,7.5-0.3
			c4.3,0,7.7,0.8,10.7,2.1c2.9,1.6,4.5,3.5,4.5,6.1c0.3,3.7-2.9,5.9-9.6,6.7v2.7H743v-5.9C745.1,632.7,746.5,632.5,747,632.2z"/>
	</g>
	<g class="st1">
		<path class="st0" d="M220.8,760.6l-12.8-19l0,0v19h-2.1V739h2.9l12,17.9l0,0V739h2.1v21.6H220.8z"/>
	</g>
	<g class="st1">
		<path class="st0" d="M273.4,760.6l-3.2-7.2H260l-3.2,7.2h-2.1L264,739h2.4l9.3,21.6H273.4z M265.4,741.4l-4.3,9.9h8.5L265.4,741.4
			z"/>
	</g>
	<g class="st1">
		<path class="st0" d="M310.2,740.9v19.8h-2.1v-19.8H303V739h12v1.9H310.2z"/>
		<path class="st0" d="M361.5,752.3c0,0.8,0,1.6-0.3,2.4s-0.3,1.6-0.5,2.1c-1.3,2.7-3.5,4-6.7,4s-5.3-1.3-6.7-4
			c-0.3-0.5-0.5-1.3-0.5-2.1s-0.3-1.6-0.3-2.4v-13.6h2.1v13.6c0,0.8,0,1.3,0.3,2.1c0,0.8,0.3,1.3,0.5,1.9c1.1,1.9,2.4,2.7,4.5,2.7
			c2.1,0,3.5-0.8,4.5-2.7c0.3-0.5,0.5-1.1,0.5-1.9c0-0.5,0.3-1.3,0.3-2.1v-13.6h2.1V752.3z"/>
	</g>
	<g class="st1">
		<path class="st0" d="M407.9,750.5c-1.3,1.3-2.7,1.9-4.5,2.1l6.1,8h-2.7l-7.5-9.9h2.4c1.1,0,1.9,0,2.4-0.3c2.4-0.8,3.5-2.1,3.5-4.5
			c0-1.9-0.8-3.2-2.4-4.3c-0.5-0.3-1.3-0.5-2.1-0.8c-0.5,0-1.3,0-2.1,0h-3.7v19.8h-2.1V739h5.6c0.5,0,0.8,0,1.3,0c0.5,0,1.1,0,1.3,0
			c1.1,0,1.9,0.3,2.7,0.8c2.7,1.3,3.7,3.2,3.7,6.1C409.8,747.8,409.3,749.1,407.9,750.5z"/>
	</g>
	<g class="st1">
		<path class="st0" d="M458.1,760.6l-3.2-7.2h-10.1l-3.2,7.2h-2.1l9.3-21.6h2.4l9.3,21.6H458.1z M450.1,741.4l-4.3,9.9h8.5
			L450.1,741.4z"/>
		<path class="st0" d="M492.6,760.6V739h2.1v19.8h9.1v1.9H492.6z"/>
		<path class="st0" d="M572.9,760.6V739h2.1v19.8h9.1v1.9H572.9z"/>
		<path class="st0" d="M615.7,760.6V739h2.1v21.6H615.7z"/>
		<path class="st0" d="M653.6,740.9v7.7h8.5v1.9h-8.5v9.9h-2.1v-21.6h10.9v1.9L653.6,740.9L653.6,740.9z"/>
		<path class="st0" d="M694.9,760.6V739h11.7v1.9h-9.6v7.7h9.3v1.9h-9.3v8h9.6v1.9L694.9,760.6L694.9,760.6z"/>
	</g>
</g>
</svg>
